<svg width="21" height="20" viewBox="0 0 21 20" fill="none" xmlns="http://www.w3.org/2000/svg">
<path d="M13.8346 17.5V15.8333C13.8346 14.9493 13.4834 14.1014 12.8583 13.4763C12.2332 12.8512 11.3854 12.5 10.5013 12.5H5.5013C4.61725 12.5 3.7694 12.8512 3.14428 13.4763C2.51916 14.1014 2.16797 14.9493 2.16797 15.8333V17.5" stroke="#474747" stroke-width="2" stroke-linecap="round" stroke-linejoin="round"/>
<path d="M8.0013 9.16667C9.84225 9.16667 11.3346 7.67428 11.3346 5.83333C11.3346 3.99238 9.84225 2.5 8.0013 2.5C6.16035 2.5 4.66797 3.99238 4.66797 5.83333C4.66797 7.67428 6.16035 9.16667 8.0013 9.16667Z" stroke="#474747" stroke-width="2" stroke-linecap="round" stroke-linejoin="round"/>
<path d="M18.8359 17.4991V15.8324C18.8354 15.0939 18.5896 14.3764 18.1371 13.7927C17.6846 13.209 17.051 12.7921 16.3359 12.6074M13.8359 2.60742C14.5529 2.79101 15.1885 3.20801 15.6423 3.79268C16.0961 4.37736 16.3425 5.09645 16.3425 5.83659C16.3425 6.57673 16.0961 7.29582 15.6423 7.8805C15.1885 8.46517 14.5529 8.88217 13.8359 9.06576" stroke="#474747" stroke-width="2" stroke-linecap="round" stroke-linejoin="round"/>
</svg>
