<svg width="18" height="18" viewBox="0 0 18 18" fill="none" xmlns="http://www.w3.org/2000/svg">
    <path
        d="M9 2.25H3.75C3.35218 2.25 2.97064 2.40804 2.68934 2.68934C2.40804 2.97064 2.25 3.35218 2.25 3.75V14.25C2.25 14.6478 2.40804 15.0294 2.68934 15.3107C2.97064 15.592 3.35218 15.75 3.75 15.75H14.25C14.6478 15.75 15.0294 15.592 15.3107 15.3107C15.592 15.0294 15.75 14.6478 15.75 14.25V9"
        stroke="#229849" stroke-linecap="round" stroke-linejoin="round" />
    <path
        d="M13.7813 1.96794C14.0797 1.66957 14.4844 1.50195 14.9063 1.50195C15.3283 1.50195 15.733 1.66957 16.0313 1.96794C16.3297 2.26631 16.4973 2.67099 16.4973 3.09294C16.4973 3.5149 16.3297 3.91957 16.0313 4.21794L9.27157 10.9784C9.09348 11.1564 8.87347 11.2866 8.63182 11.3572L6.47707 11.9872C6.41253 12.006 6.34412 12.0071 6.279 11.9905C6.21388 11.9738 6.15444 11.9399 6.10691 11.8924C6.05937 11.8448 6.02549 11.7854 6.0088 11.7203C5.99212 11.6551 5.99325 11.5867 6.01207 11.5222L6.64207 9.36744C6.71297 9.12598 6.84347 8.90624 7.02157 8.72844L13.7813 1.96794Z"
        stroke="#229849" stroke-linecap="round" stroke-linejoin="round" />
</svg>