<svg width="18" height="18" viewBox="0 0 18 18" fill="none" xmlns="http://www.w3.org/2000/svg">
    <path
        d="M9 2.25H3.75C3.35218 2.25 2.97064 2.40804 2.68934 2.68934C2.40804 2.97064 2.25 3.35218 2.25 3.75V14.25C2.25 14.6478 2.40804 15.0294 2.68934 15.3107C2.97064 15.592 3.35218 15.75 3.75 15.75H14.25C14.6478 15.75 15.0294 15.592 15.3107 15.3107C15.592 15.0294 15.75 14.6478 15.75 14.25V9"
        stroke="#474747" stroke-linecap="round" stroke-linejoin="round" />
    <path
        d="M13.7812 1.96794C14.0796 1.66957 14.4842 1.50195 14.9062 1.50195C15.3282 1.50195 15.7328 1.66957 16.0312 1.96794C16.3296 2.26631 16.4972 2.67099 16.4972 3.09294C16.4972 3.5149 16.3296 3.91957 16.0312 4.21794L9.27145 10.9784C9.09336 11.1564 8.87335 11.2866 8.6317 11.3572L6.47695 11.9872C6.41241 12.006 6.344 12.0071 6.27888 11.9905C6.21376 11.9738 6.15432 11.9399 6.10678 11.8924C6.05925 11.8448 6.02536 11.7854 6.00868 11.7203C5.992 11.6551 5.99312 11.5867 6.01195 11.5222L6.64195 9.36744C6.71284 9.12598 6.84335 8.90624 7.02145 8.72844L13.7812 1.96794Z"
        stroke="#474747" stroke-linecap="round" stroke-linejoin="round" />
</svg>