<svg width="18" height="18" viewBox="0 0 18 18" fill="none" xmlns="http://www.w3.org/2000/svg">
    <path
        d="M9.0013 0.666016C13.6013 0.666016 17.3346 4.39935 17.3346 8.99935C17.3346 13.5993 13.6013 17.3327 9.0013 17.3327C4.4013 17.3327 0.667969 13.5993 0.667969 8.99935C0.667969 4.39935 4.4013 0.666016 9.0013 0.666016ZM9.0013 15.666C12.6846 15.666 15.668 12.6827 15.668 8.99935C15.668 5.31601 12.6846 2.33268 9.0013 2.33268C5.31797 2.33268 2.33464 5.31601 2.33464 8.99935C2.33464 12.6827 5.31797 15.666 9.0013 15.666ZM11.948 4.87435L13.1263 6.05268L9.0013 10.1777L7.82297 8.99935L11.948 4.87435Z"
        fill="#474747" />
</svg>