<svg width="15" height="14" viewBox="0 0 15 14" fill="none" xmlns="http://www.w3.org/2000/svg">
    <path
        d="M7.3335 0C11.2026 0 14.3335 3.13086 14.3335 7C14.3335 10.8691 11.2026 14 7.3335 14C3.46436 14 0.333496 10.8691 0.333496 7C0.333496 3.13086 3.46436 0 7.3335 0ZM7.3335 13.1387C10.7104 13.1387 13.4585 10.377 13.4585 7C13.4585 3.62305 10.7104 0.875 7.3335 0.875C3.95654 0.875 1.2085 3.62305 1.2085 7C1.2085 10.377 3.95654 13.1387 7.3335 13.1387ZM6.85498 7.4375H4.271C4.0249 7.4375 3.8335 7.24609 3.8335 7C3.8335 6.75391 4.0249 6.5625 4.271 6.5625H10.396C10.6421 6.5625 10.8335 6.75391 10.8335 7C10.8335 7.24609 10.6421 7.4375 10.396 7.4375H6.85498Z"
        fill="#919191" />
</svg>