<svg width="17" height="16" viewBox="0 -2 17 18" fill="none" xmlns="http://www.w3.org/2000/svg">
    <g clip-path="url(#clip0_9022_50302)">
        <path
            d="M12.4297 4.64844L13.1328 5.35156L7.28125 11.2031L4.42969 8.35156L5.13281 7.64844L7.28125 9.79688L12.4297 4.64844ZM8.78125 0C9.51562 0 10.224 0.09375 10.9062 0.28125C11.5885 0.46875 12.2266 0.736979 12.8203 1.08594C13.4141 1.4349 13.9531 1.85156 14.4375 2.33594C14.9219 2.82031 15.3385 3.36198 15.6875 3.96094C16.0365 4.5599 16.3047 5.19792 16.4922 5.875C16.6797 6.55208 16.776 7.26042 16.7812 8C16.7812 8.73438 16.6875 9.44271 16.5 10.125C16.3125 10.8073 16.0443 11.4453 15.6953 12.0391C15.3464 12.6328 14.9297 13.1719 14.4453 13.6562C13.9609 14.1406 13.4193 14.5573 12.8203 14.9062C12.2214 15.2552 11.5833 15.5234 10.9062 15.7109C10.2292 15.8984 9.52083 15.9948 8.78125 16C8.04688 16 7.33854 15.9062 6.65625 15.7188C5.97396 15.5312 5.33594 15.263 4.74219 14.9141C4.14844 14.5651 3.60938 14.1484 3.125 13.6641C2.64062 13.1797 2.22396 12.638 1.875 12.0391C1.52604 11.4401 1.25781 10.8047 1.07031 10.1328C0.882812 9.46094 0.786458 8.75 0.78125 8C0.78125 7.26562 0.875 6.55729 1.0625 5.875C1.25 5.19271 1.51823 4.55469 1.86719 3.96094C2.21615 3.36719 2.63281 2.82812 3.11719 2.34375C3.60156 1.85938 4.14323 1.44271 4.74219 1.09375C5.34115 0.744792 5.97656 0.476562 6.64844 0.289062C7.32031 0.101562 8.03125 0.00520833 8.78125 0ZM8.78125 15C9.42188 15 10.0391 14.9167 10.6328 14.75C11.2266 14.5833 11.7839 14.349 12.3047 14.0469C12.8255 13.7448 13.2995 13.3776 13.7266 12.9453C14.1536 12.513 14.5182 12.0417 14.8203 11.5312C15.1224 11.0208 15.3594 10.4635 15.5312 9.85938C15.7031 9.25521 15.7865 8.63542 15.7812 8C15.7812 7.35938 15.6979 6.74219 15.5312 6.14844C15.3646 5.55469 15.1302 4.9974 14.8281 4.47656C14.526 3.95573 14.1589 3.48177 13.7266 3.05469C13.2943 2.6276 12.8229 2.26302 12.3125 1.96094C11.8021 1.65885 11.2448 1.42188 10.6406 1.25C10.0365 1.07812 9.41667 0.994792 8.78125 1C8.14062 1 7.52344 1.08333 6.92969 1.25C6.33594 1.41667 5.77865 1.65104 5.25781 1.95312C4.73698 2.25521 4.26302 2.6224 3.83594 3.05469C3.40885 3.48698 3.04427 3.95833 2.74219 4.46875C2.4401 4.97917 2.20312 5.53646 2.03125 6.14062C1.85938 6.74479 1.77604 7.36458 1.78125 8C1.78125 8.64062 1.86458 9.25781 2.03125 9.85156C2.19792 10.4453 2.43229 11.0026 2.73438 11.5234C3.03646 12.0443 3.40365 12.5182 3.83594 12.9453C4.26823 13.3724 4.73958 13.737 5.25 14.0391C5.76042 14.3411 6.31771 14.5781 6.92188 14.75C7.52604 14.9219 8.14583 15.0052 8.78125 15Z"
            fill="#919191" />
    </g>

</svg>