<svg width="21" height="20" viewBox="0 0 21 20" fill="none" xmlns="http://www.w3.org/2000/svg">
<path d="M10.207 2.93915C10.2897 2.93383 10.3706 2.91211 10.4449 2.87524C10.5191 2.83837 10.5853 2.78709 10.6396 2.72439C10.6938 2.66168 10.7351 2.58881 10.7609 2.51002C10.7867 2.43122 10.7966 2.34807 10.7899 2.26542C10.7833 2.18277 10.7603 2.10227 10.7222 2.0286C10.6842 1.95493 10.6318 1.88957 10.5683 1.83632C10.5047 1.78308 10.4312 1.74301 10.352 1.71846C10.2728 1.69391 10.1895 1.68536 10.107 1.69331C5.81948 2.03498 2.44531 5.62331 2.44531 9.99998C2.44531 14.6025 6.17615 18.3333 10.7786 18.3333C15.1528 18.3333 18.7395 14.9633 19.0845 10.6783C19.0924 10.5958 19.0839 10.5125 19.0593 10.4333C19.0348 10.3541 18.9947 10.2806 18.9415 10.217C18.8882 10.1534 18.8229 10.1011 18.7492 10.0631C18.6755 10.025 18.595 10.002 18.5124 9.99536C18.4297 9.98872 18.3466 9.9986 18.2678 10.0244C18.189 10.0502 18.1161 10.0915 18.0534 10.1457C17.9907 10.2 17.9394 10.2662 17.9026 10.3404C17.8657 10.4147 17.844 10.4956 17.8386 10.5783C17.7281 11.9257 17.2344 13.2133 16.4156 14.2891C15.5969 15.3649 14.4874 16.184 13.2181 16.6495C11.9489 17.115 10.5729 17.2076 9.25276 16.9163C7.93259 16.625 6.72336 15.962 5.76788 15.0056C4.8124 14.0491 4.15058 12.8393 3.86057 11.5188C3.57057 10.1984 3.6645 8.8225 4.13127 7.55371C4.59804 6.28493 5.41816 5.17622 6.49476 4.35853C7.57136 3.54084 8.85948 3.04832 10.207 2.93915ZM15.5261 3.89498C15.5816 3.83444 15.6485 3.78542 15.7229 3.75073C15.7973 3.71604 15.8778 3.69635 15.9599 3.69279C16.0419 3.68923 16.1238 3.70187 16.201 3.72998C16.2781 3.7581 16.349 3.80114 16.4095 3.85665C16.5884 4.01998 16.7595 4.19137 16.9228 4.37081C17.028 4.49397 17.0812 4.65314 17.0713 4.81477C17.0614 4.97641 16.9892 5.1279 16.8698 5.23733C16.7505 5.34676 16.5933 5.40559 16.4314 5.40142C16.2695 5.39725 16.1156 5.33041 16.002 5.21498C15.8622 5.06319 15.7163 4.91723 15.5645 4.77748C15.5039 4.72201 15.4549 4.65516 15.4202 4.58073C15.3855 4.50631 15.3658 4.42579 15.3623 4.34376C15.3587 4.26172 15.3714 4.17979 15.3995 4.10265C15.4276 4.0255 15.4706 3.95548 15.5261 3.89498ZM10.1536 4.99998C10.3047 4.99999 10.4506 5.05468 10.5644 5.15395C10.6782 5.25322 10.7523 5.39035 10.7728 5.53998L10.7786 5.62498V9.99998H13.487C13.6453 10 13.7978 10.0602 13.9135 10.1683C14.0292 10.2764 14.0995 10.4244 14.1103 10.5824C14.1211 10.7404 14.0716 10.8966 13.9716 11.0194C13.8717 11.1422 13.7289 11.2226 13.572 11.2441L13.487 11.25H10.1536C10.0025 11.2499 9.85647 11.1951 9.74262 11.0957C9.62878 10.9963 9.55484 10.8589 9.53448 10.7091L9.52865 10.625V5.62498C9.52865 5.45922 9.59449 5.30025 9.71171 5.18304C9.82892 5.06583 9.98789 4.99998 10.1536 4.99998ZM12.2628 2.40831C12.2849 2.32923 12.3224 2.25527 12.3732 2.19069C12.4239 2.1261 12.4868 2.07214 12.5584 2.0319C12.63 1.99165 12.7088 1.96591 12.7904 1.95615C12.8719 1.94638 12.9546 1.95278 13.0336 1.97498C13.3376 2.06072 13.6364 2.16366 13.9286 2.28331C14.007 2.31264 14.0786 2.35738 14.1393 2.41489C14.2 2.47241 14.2486 2.54152 14.2821 2.61815C14.3156 2.69477 14.3334 2.77734 14.3345 2.86096C14.3355 2.94459 14.3197 3.02757 14.2881 3.10499C14.2565 3.18241 14.2096 3.25269 14.1503 3.31168C14.0911 3.37067 14.0205 3.41716 13.943 3.4484C13.8654 3.47964 13.7823 3.49499 13.6987 3.49354C13.6151 3.49209 13.5326 3.47388 13.4561 3.43998C13.2095 3.33887 12.9561 3.25192 12.6961 3.17915C12.6171 3.15702 12.5431 3.11952 12.4785 3.0688C12.4139 3.01808 12.36 2.95512 12.3197 2.88353C12.2795 2.81195 12.2537 2.73313 12.244 2.65159C12.2342 2.57005 12.2406 2.48738 12.2628 2.40831ZM18.4945 6.84581C18.4634 6.76981 18.4177 6.70067 18.3599 6.64235C18.3021 6.58403 18.2333 6.53766 18.1576 6.50589C18.0819 6.47413 18.0007 6.45759 17.9186 6.45722C17.8364 6.45684 17.7551 6.47265 17.6791 6.50373C17.6031 6.53481 17.5339 6.58055 17.4756 6.63835C17.4173 6.69615 17.3709 6.76487 17.3391 6.84059C17.3074 6.91631 17.2908 6.99754 17.2905 7.07965C17.2901 7.16176 17.3059 7.24314 17.337 7.31915C17.4398 7.56778 17.5274 7.82242 17.5995 8.08165C17.6204 8.16207 17.6571 8.23752 17.7075 8.30358C17.7579 8.36965 17.8209 8.425 17.893 8.4664C17.965 8.50781 18.0446 8.53443 18.1271 8.54471C18.2095 8.555 18.2932 8.54874 18.3732 8.5263C18.4532 8.50386 18.5279 8.46569 18.593 8.41403C18.6581 8.36237 18.7122 8.29824 18.7522 8.22542C18.7922 8.15259 18.8173 8.07251 18.826 7.98988C18.8347 7.90724 18.8268 7.8237 18.8028 7.74415C18.7172 7.43908 18.6143 7.13915 18.4945 6.84581Z" fill="#919191"/>
</svg>
