<svg width="40" height="40" viewBox="0 0 40 40" fill="none" xmlns="http://www.w3.org/2000/svg">
<g filter="url(#filter0_d_7593_26269)">
<rect x="4" y="3" width="30" height="30" rx="15" fill="#E7F7D2"/>
</g>
<path d="M20.8633 17.265C20.8633 16.8592 21.1922 16.5303 21.598 16.5303C22.0037 16.5303 22.3327 16.8592 22.3327 17.265V18.7344C22.3327 19.1401 22.0037 19.469 21.598 19.469C21.1922 19.469 20.8633 19.1401 20.8633 18.7344V17.265Z" stroke="#229849" stroke-width="1.07143"/>
<path d="M20.8774 21.6733L21.4284 21.6749V21.6733H20.8774ZM20.8774 14.3264H21.4284V14.3248L20.8774 14.3264ZM21.4241 23.1465L21.4284 21.6749L20.3263 21.6717L20.3221 23.1432L21.4241 23.1465ZM21.6139 21.4896C21.7176 21.4896 21.7994 21.5732 21.7994 21.6733H22.9014C22.9014 20.9619 22.3237 20.3876 21.6139 20.3876V21.4896ZM21.6139 20.3876C20.9041 20.3876 20.3263 20.9619 20.3263 21.6733H21.4284C21.4284 21.5732 21.5102 21.4896 21.6139 21.4896V20.3876ZM17.9249 12.6733H20.5038V11.5713H17.9249V12.6733ZM20.1384 23.3264H17.9249V24.4284H20.1384V23.3264ZM17.9249 23.3264C16.5205 23.3264 15.5226 23.3252 14.7654 23.2237C14.024 23.1243 13.5967 22.9377 13.2847 22.6265L12.5064 23.4068C13.0574 23.9563 13.7558 24.2001 14.619 24.3159C15.4664 24.4296 16.5516 24.4284 17.9249 24.4284V23.3264ZM17.9249 11.5713C16.5516 11.5713 15.4664 11.5701 14.619 11.6838C13.7558 11.7995 13.0574 12.0434 12.5064 12.5929L13.2847 13.3732C13.5967 13.062 14.024 12.8755 14.7654 12.776C15.5226 12.6745 16.5205 12.6733 17.9249 12.6733V11.5713ZM12.4825 17.1979C12.7659 17.3562 12.9547 17.6568 12.9547 17.9999H14.0567C14.0567 17.2405 13.6369 16.5803 13.0199 16.2357L12.4825 17.1979ZM12.6093 15.8112C12.6666 14.4476 12.8529 13.8039 13.2847 13.3732L12.5064 12.5929C11.75 13.3475 11.5662 14.3865 11.5082 15.7649L12.6093 15.8112ZM12.9547 17.9999C12.9547 18.343 12.7659 18.6435 12.4825 18.8018L13.0199 19.764C13.6369 19.4194 14.0567 18.7592 14.0567 17.9999H12.9547ZM11.5082 20.2348C11.5662 21.6132 11.75 22.6522 12.5064 23.4068L13.2847 22.6265C12.8529 22.1958 12.6666 21.5522 12.6093 20.1885L11.5082 20.2348ZM25.8411 17.9999C25.8411 17.6568 26.0299 17.3562 26.3133 17.1979L25.7759 16.2357C25.1589 16.5803 24.7391 17.2405 24.7391 17.9999H25.8411ZM27.2876 15.7649C27.2297 14.3865 27.0458 13.3475 26.2894 12.5929L25.5111 13.3732C25.9429 13.8039 26.1292 14.4476 26.1866 15.8112L27.2876 15.7649ZM26.3133 18.8018C26.0299 18.6435 25.8411 18.343 25.8411 17.9999H24.7391C24.7391 18.7592 25.1589 19.4194 25.7759 19.764L26.3133 18.8018ZM26.1866 20.1885C26.1292 21.5522 25.9429 22.1958 25.5111 22.6265L26.2894 23.4068C27.0458 22.6522 27.2297 21.6132 27.2876 20.2348L26.1866 20.1885ZM25.7759 19.764C25.9846 19.8804 26.1209 19.9568 26.213 20.0149C26.2584 20.0435 26.2785 20.0588 26.2846 20.0638C26.2952 20.0726 26.2581 20.0457 26.2226 19.9823L27.1843 19.444C27.1234 19.3353 27.0419 19.2601 26.9876 19.2152C26.9287 19.1664 26.8634 19.1222 26.801 19.0829C26.6778 19.0051 26.51 18.9117 26.3133 18.8018L25.7759 19.764ZM27.2876 20.2348C27.2929 20.1089 27.2989 19.9789 27.2941 19.8702C27.2893 19.7601 27.2722 19.6011 27.1843 19.444L26.2226 19.9823C26.1854 19.9159 26.191 19.8702 26.1931 19.9187C26.194 19.9397 26.1942 19.9704 26.1929 20.0176C26.1918 20.0646 26.1894 20.1192 26.1866 20.1885L27.2876 20.2348ZM26.3133 17.1979C26.51 17.088 26.6778 16.9946 26.801 16.9168C26.8634 16.8775 26.9287 16.8333 26.9876 16.7845C27.0419 16.7396 27.1234 16.6644 27.1843 16.5557L26.2226 16.0174C26.2581 15.954 26.2952 15.9271 26.2846 15.9359C26.2785 15.9409 26.2584 15.9562 26.213 15.9848C26.1209 16.0429 25.9846 16.1192 25.7759 16.2357L26.3133 17.1979ZM26.1866 15.8112C26.1894 15.8805 26.1918 15.9351 26.1929 15.9821C26.1942 16.0293 26.194 16.06 26.1931 16.081C26.191 16.1295 26.1854 16.0838 26.2226 16.0174L27.1843 16.5557C27.2722 16.3986 27.2893 16.2396 27.2941 16.1295C27.2989 16.0208 27.2929 15.8909 27.2876 15.7649L26.1866 15.8112ZM12.4825 18.8018C12.2858 18.9117 12.1181 19.0051 11.9948 19.0829C11.9325 19.1222 11.8671 19.1664 11.8082 19.2152C11.7539 19.2601 11.6724 19.3353 11.6116 19.444L12.5732 19.9823C12.5377 20.0457 12.5006 20.0726 12.5113 20.0638C12.5173 20.0588 12.5375 20.0435 12.5828 20.0149C12.6749 19.9568 12.8113 19.8804 13.0199 19.764L12.4825 18.8018ZM12.6093 20.1885C12.6064 20.1192 12.6041 20.0646 12.6029 20.0176C12.6017 19.9704 12.6018 19.9397 12.6027 19.9187C12.6049 19.8702 12.6104 19.9159 12.5732 19.9823L11.6116 19.444C11.5236 19.6011 11.5066 19.7601 11.5018 19.8702C11.497 19.9789 11.5029 20.1089 11.5082 20.2348L12.6093 20.1885ZM13.0199 16.2357C12.8113 16.1192 12.6749 16.0429 12.5828 15.9848C12.5375 15.9562 12.5173 15.9409 12.5113 15.9359C12.5006 15.9271 12.5377 15.954 12.5732 16.0174L11.6116 16.5557C11.6724 16.6644 11.7539 16.7396 11.8082 16.7845C11.8671 16.8333 11.9325 16.8775 11.9948 16.9168C12.1181 16.9946 12.2858 17.088 12.4825 17.1979L13.0199 16.2357ZM11.5082 15.7649C11.5029 15.8909 11.497 16.0208 11.5018 16.1295C11.5066 16.2396 11.5236 16.3986 11.6116 16.5557L12.5732 16.0174C12.6104 16.0838 12.6049 16.1295 12.6027 16.081C12.6018 16.06 12.6017 16.0293 12.6029 15.9821C12.6041 15.9351 12.6064 15.8805 12.6093 15.8112L11.5082 15.7649ZM21.4284 14.3248L21.423 12.487L20.321 12.4902L20.3263 14.328L21.4284 14.3248ZM21.6139 14.5101C21.5102 14.5101 21.4284 14.4265 21.4284 14.3264H20.3263C20.3263 15.0378 20.9041 15.6121 21.6139 15.6121V14.5101ZM21.7994 14.3264C21.7994 14.4265 21.7176 14.5101 21.6139 14.5101V15.6121C22.3237 15.6121 22.9014 15.0378 22.9014 14.3264H21.7994ZM21.7994 12.5015V14.3264H22.9014V12.5015H21.7994ZM22.7102 12.687C24.3179 12.7285 25.0387 12.902 25.5111 13.3732L26.2894 12.5929C25.4721 11.7776 24.3159 11.626 22.7386 11.5854L22.7102 12.687ZM22.9014 12.5015C22.9014 12.6043 22.8167 12.6898 22.7102 12.687L22.7386 11.5854C22.2213 11.572 21.7994 11.9889 21.7994 12.5015H22.9014ZM20.5038 12.6733C20.4043 12.6733 20.3213 12.5927 20.321 12.4902L21.423 12.487C21.4216 11.9796 21.0092 11.5713 20.5038 11.5713V12.6733ZM23.1194 24.4016C24.4966 24.3434 25.5348 24.1595 26.2894 23.4068L25.5111 22.6265C25.0797 23.0568 24.4352 23.243 23.0728 23.3005L23.1194 24.4016ZM21.7994 21.6733V23.1254H22.9014V21.6733H21.7994ZM20.3221 23.1432C20.3218 23.2316 20.3216 23.2996 20.32 23.3577C20.3183 23.4161 20.3155 23.4507 20.3126 23.4719C20.3097 23.4927 20.3086 23.4857 20.3172 23.465C20.3276 23.4399 20.3465 23.4084 20.375 23.38L21.1531 24.1604C21.3262 23.9877 21.3823 23.7825 21.4044 23.6218C21.4243 23.4768 21.4237 23.3036 21.4241 23.1465L20.3221 23.1432ZM20.1384 24.4284C20.2956 24.4284 20.4688 24.4296 20.6138 24.4101C20.7747 24.3885 20.98 24.333 21.1531 24.1604L20.375 23.38C20.4035 23.3516 20.435 23.3328 20.4601 23.3225C20.4809 23.314 20.4879 23.3151 20.4671 23.3179C20.4459 23.3207 20.4112 23.3234 20.3529 23.3249C20.2948 23.3264 20.2268 23.3264 20.1384 23.3264V24.4284ZM23.0728 23.3005C22.9841 23.3043 22.9163 23.3071 22.8584 23.308C22.8003 23.3089 22.7664 23.3076 22.7463 23.3056C22.7267 23.3037 22.7353 23.3025 22.758 23.3111C22.7851 23.3215 22.8169 23.34 22.8449 23.3668L22.0822 24.1623C22.2616 24.3343 22.4711 24.3859 22.6385 24.4023C22.7868 24.417 22.9625 24.4082 23.1194 24.4016L23.0728 23.3005ZM21.7994 23.1254C21.7994 23.2862 21.7982 23.4641 21.8187 23.6127C21.8417 23.7786 21.901 23.9886 22.0822 24.1623L22.8449 23.3668C22.874 23.3947 22.8939 23.4265 22.9051 23.4528C22.9144 23.4745 22.9133 23.4823 22.9103 23.4613C22.9074 23.44 22.9045 23.4047 22.903 23.345C22.9014 23.2856 22.9014 23.216 22.9014 23.1254H21.7994Z" fill="#229849"/>
<defs>
<filter id="filter0_d_7593_26269" x="0.785714" y="0.857143" width="38.5714" height="38.5714" filterUnits="userSpaceOnUse" color-interpolation-filters="sRGB">
<feFlood flood-opacity="0" result="BackgroundImageFix"/>
<feColorMatrix in="SourceAlpha" type="matrix" values="0 0 0 0 0 0 0 0 0 0 0 0 0 0 0 0 0 0 127 0" result="hardAlpha"/>
<feOffset dx="1.07143" dy="2.14286"/>
<feGaussianBlur stdDeviation="2.14286"/>
<feComposite in2="hardAlpha" operator="out"/>
<feColorMatrix type="matrix" values="0 0 0 0 0 0 0 0 0 0 0 0 0 0 0 0 0 0 0.08 0"/>
<feBlend mode="normal" in2="BackgroundImageFix" result="effect1_dropShadow_7593_26269"/>
<feBlend mode="normal" in="SourceGraphic" in2="effect1_dropShadow_7593_26269" result="shape"/>
</filter>
</defs>
</svg>
