<svg
                width="20"
                height="20"
                viewBox="0 0 20 20"
                fill="none"
                xmlns="http://www.w3.org/2000/svg"
              >
                <rect
                  x="0.25"
                  y="0.25"
                  width="19.5"
                  height="19.5"
                  rx="1.75"
                  fill="white"
                />
                <rect
                  x="0.25"
                  y="0.25"
                  width="19.5"
                  height="19.5"
                  rx="1.75"
                  stroke="#DADADA"
                  stroke-width="0.5"
                />
                <path
                  d="M14.3333 14.6667C14.3333 15.1971 14.1226 15.7058 13.7475 16.0809C13.3725 16.456 12.8638 16.6667 12.3333 16.6667H7.66667C7.13623 16.6667 6.62753 16.456 6.25245 16.0809C5.87738 15.7058 5.66667 15.1971 5.66667 14.6667V6.66667H5V4.66667H8L8.66667 4H11.3333L12 4.66667H15V6.66667H14.3333V14.6667ZM6.33333 6.66667V14.6667C6.33333 15.0203 6.47381 15.3594 6.72386 15.6095C6.97391 15.8595 7.31304 16 7.66667 16H12.3333C12.687 16 13.0261 15.8595 13.2761 15.6095C13.5262 15.3594 13.6667 15.0203 13.6667 14.6667V6.66667H6.33333ZM14.3333 6V5.33333H11.6667L11 4.66667H9L8.33333 5.33333H5.66667V6H14.3333ZM7.66667 8H8.33333V14.6667H7.66667V8ZM11.6667 8H12.3333V14.6667H11.6667V8Z"
                  fill="#D95C41"
                />
              </svg>