<svg
                  width="20"
                  height="20"
                  viewBox="0 0 20 20"
                  fill="none"
                  xmlns="http://www.w3.org/2000/svg">
                  <rect
                    x="0.25"
                    y="0.25"
                    width="19.5"
                    height="19.5"
                    rx="1.75"
                    fill="white"
                  />
                  <rect
                    x="0.25"
                    y="0.25"
                    width="19.5"
                    height="19.5"
                    rx="1.75"
                    stroke="#DADADA"
                    stroke-width="0.5"
                  />
                  <path
                    d="M10.2128 6C8.0478 6 5.82697 7.25306 4.07864 9.75917C4.02873 9.83149 4.00139 9.91698 4.00005 10.0048C3.99872 10.0927 4.02345 10.179 4.07114 10.2528C5.41447 12.3556 7.60558 14 10.2128 14C12.7917 14 15.0278 12.3506 16.3736 10.2431C16.4202 10.1707 16.445 10.0865 16.445 10.0004C16.445 9.91437 16.4202 9.83014 16.3736 9.75778C15.0247 7.67444 12.7722 6 10.2128 6Z"
                    stroke="#474747"
                    stroke-width="0.5"
                    stroke-linecap="round"
                    stroke-linejoin="round"
                  />
                  <path
                    d="M10.2222 12.2218C11.4495 12.2218 12.4444 11.2269 12.4444 9.99957C12.4444 8.77227 11.4495 7.77734 10.2222 7.77734C8.99492 7.77734 8 8.77227 8 9.99957C8 11.2269 8.99492 12.2218 10.2222 12.2218Z"
                    stroke="#474747"
                    stroke-width="0.5"
                    stroke-miterlimit="10"
                  />
                </svg>