<svg
              width="18"
              height="18"
              viewBox="0 0 18 18"
              fill="none"
              xmlns="http://www.w3.org/2000/svg">
              <path
                d="M10.5 0C11.4946 0 12.4484 0.395088 13.1517 1.09835C13.8549 1.80161 14.25 2.75544 14.25 3.75V12.75C14.25 13.4394 14.1142 14.1221 13.8504 14.7591C13.5865 15.396 13.1998 15.9748 12.7123 16.4623C12.2248 16.9498 11.646 17.3365 11.0091 17.6004C10.3721 17.8642 9.68944 18 9 18C8.31056 18 7.62787 17.8642 6.99091 17.6004C6.35395 17.3365 5.7752 16.9498 5.28769 16.4623C4.80018 15.9748 4.41347 15.396 4.14963 14.7591C3.8858 14.1221 3.75 13.4394 3.75 12.75V6.75H5.25V12.75C5.25 13.7446 5.64509 14.6984 6.34835 15.4017C7.05161 16.1049 8.00544 16.5 9 16.5C9.99456 16.5 10.9484 16.1049 11.6517 15.4017C12.3549 14.6984 12.75 13.7446 12.75 12.75V3.75C12.75 3.45453 12.6918 3.16194 12.5787 2.88896C12.4657 2.61598 12.2999 2.36794 12.091 2.15901C11.8821 1.95008 11.634 1.78434 11.361 1.67127C11.0881 1.5582 10.7955 1.5 10.5 1.5C10.2045 1.5 9.91194 1.5582 9.63896 1.67127C9.36598 1.78434 9.11794 1.95008 8.90901 2.15901C8.70008 2.36794 8.53434 2.61598 8.42127 2.88896C8.3082 3.16194 8.25 3.45453 8.25 3.75V12.75C8.25 12.9489 8.32902 13.1397 8.46967 13.2803C8.61032 13.421 8.80109 13.5 9 13.5C9.19891 13.5 9.38968 13.421 9.53033 13.2803C9.67098 13.1397 9.75 12.9489 9.75 12.75V4.5H11.25V12.75C11.25 13.3467 11.0129 13.919 10.591 14.341C10.169 14.7629 9.59674 15 9 15C8.40326 15 7.83097 14.7629 7.40901 14.341C6.98705 13.919 6.75 13.3467 6.75 12.75V3.75C6.75 2.75544 7.14509 1.80161 7.84835 1.09835C8.55161 0.395088 9.50544 0 10.5 0Z"
                fill="#229849"
              />
            </svg>