<svg width="23" height="24" viewBox="0 0 27 24" fill="none" xmlns="http://www.w3.org/2000/svg">
<path d="M9.45234 19H8.89633C4.44819 19 2.22412 18 2.22412 13V8C2.22412 4 4.44819 2 8.89633 2H17.7926C22.2407 2 24.4648 4 24.4648 8V13C24.4648 17 22.2407 19 17.7926 19H17.2366C16.8919 19 16.5582 19.15 16.347 19.4L14.6789 21.4C13.945 22.28 12.744 22.28 12.01 21.4L10.342 19.4C10.164 19.18 9.75259 19 9.45234 19Z" stroke="#787486" stroke-width="1.5" stroke-miterlimit="10" stroke-linecap="round" stroke-linejoin="round"/>
<path d="M17.7887 11H17.7987" stroke="#787486" stroke-width="2" stroke-linecap="round" stroke-linejoin="round"/>
<path d="M13.3395 11H13.3494" stroke="#787486" stroke-width="2" stroke-linecap="round" stroke-linejoin="round"/>
<path d="M8.89024 11H8.90023" stroke="#787486" stroke-width="2" stroke-linecap="round" stroke-linejoin="round"/>
</svg>
