<svg width="23" height="24" viewBox="0 0 24 24" fill="none" xmlns="http://www.w3.org/2000/svg">
<path fill-rule="evenodd" clip-rule="evenodd" d="M13.087 21.388L13.629 20.472C14.049 19.762 14.259 19.406 14.597 19.21C14.935 19.013 15.36 19.006 16.21 18.991C17.466 18.97 18.253 18.893 18.913 18.619C19.5196 18.3677 20.0708 17.9994 20.5351 17.5351C20.9994 17.0708 21.3677 16.5196 21.619 15.913C22 14.995 22 13.83 22 11.5V10.5C22 7.227 22 5.59 21.263 4.388C20.851 3.7152 20.2856 3.14945 19.613 2.737C18.41 2 16.773 2 13.5 2H10.5C7.227 2 5.59 2 4.388 2.737C3.7152 3.14904 3.14945 3.71445 2.737 4.387C2 5.59 2 7.228 2 10.5V11.5C2 13.83 2 14.995 2.38 15.913C2.63139 16.5197 2.99984 17.071 3.46432 17.5353C3.92879 17.9996 4.48018 18.3678 5.087 18.619C5.747 18.893 6.534 18.969 7.79 18.991C8.64 19.006 9.065 19.013 9.403 19.21C9.74 19.406 9.951 19.761 10.371 20.472L10.913 21.388C11.396 22.204 12.603 22.204 13.087 21.388ZM16 12C16.2652 12 16.5196 11.8946 16.7071 11.7071C16.8946 11.5196 17 11.2652 17 11C17 10.7348 16.8946 10.4804 16.7071 10.2929C16.5196 10.1054 16.2652 10 16 10C15.7348 10 15.4804 10.1054 15.2929 10.2929C15.1054 10.4804 15 10.7348 15 11C15 11.2652 15.1054 11.5196 15.2929 11.7071C15.4804 11.8946 15.7348 12 16 12ZM13 11C13 11.2652 12.8946 11.5196 12.7071 11.7071C12.5196 11.8946 12.2652 12 12 12C11.7348 12 11.4804 11.8946 11.2929 11.7071C11.1054 11.5196 11 11.2652 11 11C11 10.7348 11.1054 10.4804 11.2929 10.2929C11.4804 10.1054 11.7348 10 12 10C12.2652 10 12.5196 10.1054 12.7071 10.2929C12.8946 10.4804 13 10.7348 13 11ZM8 12C8.26522 12 8.51957 11.8946 8.70711 11.7071C8.89464 11.5196 9 11.2652 9 11C9 10.7348 8.89464 10.4804 8.70711 10.2929C8.51957 10.1054 8.26522 10 8 10C7.73478 10 7.48043 10.1054 7.29289 10.2929C7.10536 10.4804 7 10.7348 7 11C7 11.2652 7.10536 11.5196 7.29289 11.7071C7.48043 11.8946 7.73478 12 8 12Z" fill="#229849"/>
</svg>
