<svg width="18" height="20" viewBox="0 0 21 20" fill="none" xmlns="http://www.w3.org/2000/svg">
<path d="M10.7793 17.5C12.2627 17.5 13.7127 17.0601 14.9461 16.236C16.1794 15.4119 17.1407 14.2406 17.7084 12.8701C18.2761 11.4997 18.4246 9.99168 18.1352 8.53683C17.8458 7.08197 17.1315 5.7456 16.0826 4.6967C15.0337 3.64781 13.6973 2.9335 12.2425 2.64411C10.7876 2.35472 9.27962 2.50325 7.90917 3.07091C6.53873 3.63856 5.36739 4.59986 4.54328 5.83323C3.71916 7.0666 3.2793 8.51664 3.2793 10C3.2793 11.24 3.5793 12.4083 4.11263 13.4392L3.2793 17.5L7.34013 16.6667C8.37013 17.1992 9.54013 17.5 10.7793 17.5Z" stroke="#919191" stroke-width="1.5" stroke-linecap="round" stroke-linejoin="round"/>
</svg>
