<svg width="24" height="24" viewBox="0 0 24 24" fill="none" xmlns="http://www.w3.org/2000/svg">
<path fill-rule="evenodd" clip-rule="evenodd" d="M14 6H10C9.00335 6 8.0067 6 8.00003 4.02002H8C4.67 4.20002 3 5.44002 3 10V16C3 20 4 22 9 22H15C20 22 21 20 21 16V10C21 5.43002 19.33 4.20002 16 4.02002C15.9999 5.0133 15.9867 6 14 6ZM8 11.45C7.58579 11.45 7.25 11.7857 7.25 12.2C7.25 12.6142 7.58579 12.95 8 12.95H15C15.4142 12.95 15.75 12.6142 15.75 12.2C15.75 11.7857 15.4142 11.45 15 11.45H8ZM7.25 16.2C7.25 15.7857 7.58579 15.45 8 15.45H12.38C12.7942 15.45 13.13 15.7857 13.13 16.2C13.13 16.6142 12.7942 16.95 12.38 16.95H8C7.58579 16.95 7.25 16.6142 7.25 16.2Z" fill="#229849"/>
<path d="M10 6H14C16 6 16 5 16 4C16 2 15 2 14 2H10C9 2 8 2 8 4C8 6 9 6 10 6Z" stroke="#229849" stroke-width="1.5" stroke-miterlimit="10" stroke-linecap="round" stroke-linejoin="round"/>
</svg>
