<svg width="23" height="14" viewBox="0 0 18 18" fill="none" xmlns="http://www.w3.org/2000/svg">
<path d="M2.88889 18C2.35622 18 1.90824 17.8184 1.54494 17.4551C1.18165 17.0918 1 16.6438 1 16.1111V13.495H3.83333V1H16.1111V16.1111C16.1111 16.6438 15.9295 17.0918 15.5662 17.4551C15.2029 17.8184 14.7549 18 14.2222 18H2.88889ZM14.2222 17.0556C14.4898 17.0556 14.7143 16.9649 14.8956 16.7836C15.0769 16.6022 15.1673 16.3781 15.1667 16.1111V1.94444H4.77778V13.495H13.2778V16.1111C13.2778 16.3787 13.3684 16.6032 13.5498 16.7845C13.7311 16.9658 13.9553 17.0562 14.2222 17.0556ZM6.08583 6.08583V5.14139H13.8586V6.08583H6.08583ZM6.08583 8.701V7.75656H13.8586V8.701H6.08583ZM2.88889 17.0556H12.3333V14.4394H1.94444V16.1111C1.94444 16.3787 2.03511 16.6032 2.21644 16.7845C2.39778 16.9658 2.62193 17.0562 2.88889 17.0556ZM2.88889 17.0556H1.94444H12.3333H2.88889Z" fill="#474747"/>
</svg>
