<svg width="23" height="24" viewBox="0 0 20 20" fill="none" xmlns="http://www.w3.org/2000/svg">
<path d="M8.99494 2.68V6.56C8.99494 6.88127 8.9315 7.19938 8.80825 7.49606C8.685 7.79275 8.50438 8.06218 8.27674 8.28889C8.04911 8.51559 7.77894 8.69511 7.48175 8.81714C7.18456 8.93918 6.8662 9.00132 6.54494 9H2.68494C2.36454 9.00194 2.04704 8.93917 1.75149 8.81545C1.45594 8.69173 1.1884 8.50961 0.964935 8.28C0.73805 8.055 0.558378 7.78697 0.436457 7.49161C0.314537 7.19625 0.252823 6.87952 0.254935 6.56V2.69C0.25493 2.0446 0.510627 1.42549 0.966055 0.968185C1.42148 0.510883 2.03954 0.252645 2.68494 0.25H6.55494C6.875 0.250308 7.19182 0.314103 7.48706 0.437692C7.7823 0.561281 8.0501 0.742209 8.27493 0.97C8.50242 1.19298 8.68325 1.45902 8.80686 1.75261C8.93048 2.04619 8.99441 2.36145 8.99494 2.68ZM19.7449 2.69V6.56C19.7397 7.2038 19.4824 7.81991 19.0281 8.27609C18.5738 8.73227 17.9587 8.99217 17.3149 9H13.4349C12.7881 8.99604 12.168 8.74155 11.7049 8.29C11.4786 8.06249 11.2995 7.79258 11.1776 7.49572C11.0558 7.19886 10.9937 6.88088 10.9949 6.56V2.69C10.9941 2.36977 11.0574 2.05261 11.1811 1.75722C11.3047 1.46182 11.4862 1.19416 11.7149 0.97C11.9398 0.742209 12.2076 0.561281 12.5028 0.437692C12.798 0.314103 13.1149 0.250308 13.4349 0.25H17.3049C17.9504 0.255227 18.568 0.513976 19.0245 0.970437C19.481 1.4269 19.7397 2.04449 19.7449 2.69ZM19.7449 13.44V17.31C19.7397 17.9538 19.4824 18.5699 19.0281 19.0261C18.5738 19.4823 17.9587 19.7422 17.3149 19.75H13.4349C12.784 19.7566 12.1562 19.5091 11.6849 19.06C11.4578 18.8331 11.278 18.5634 11.1561 18.2664C11.0342 17.9693 10.9726 17.651 10.9749 17.33V13.46C10.9741 13.1398 11.0374 12.8226 11.1611 12.5272C11.2847 12.2318 11.4662 11.9642 11.6949 11.74C11.9198 11.5122 12.1876 11.3313 12.4828 11.2077C12.778 11.0841 13.0949 11.0203 13.4149 11.02H17.2849C17.9304 11.0252 18.548 11.284 19.0045 11.7404C19.461 12.1969 19.7197 12.8145 19.7249 13.46L19.7449 13.44ZM8.99494 13.45V17.32C8.98707 17.9655 8.72579 18.582 8.26746 19.0366C7.80912 19.4912 7.19047 19.7474 6.54494 19.75H2.68494C2.36545 19.7513 2.04887 19.6894 1.75345 19.5677C1.45803 19.4461 1.18963 19.2671 0.963716 19.0412C0.737806 18.8153 0.558864 18.5469 0.437213 18.2515C0.315563 17.9561 0.253612 17.6395 0.254935 17.32V13.45C0.257511 12.8045 0.513727 12.1858 0.968318 11.7275C1.42291 11.2691 2.03944 11.0079 2.68494 11H6.55494C7.20314 11.0066 7.82342 11.2648 8.28493 11.72C8.74103 12.1801 8.99631 12.8021 8.99494 13.45Z" fill="#229849"/>
</svg>
