<svg width="23" height="24" viewBox="0 0 24 24" xmlns="http://www.w3.org/2000/svg">
<path d="M7.57324 10.75H5.57324C3.15324 10.75 1.82324 9.42 1.82324 7V5C1.82324 2.58 3.15324 1.25 5.57324 1.25H7.57324C9.99324 1.25 11.3232 2.58 11.3232 5V7C11.3232 9.42 9.99324 10.75 7.57324 10.75ZM5.57324 2.75C3.99324 2.75 3.32324 3.42 3.32324 5V7C3.32324 8.58 3.99324 9.25 5.57324 9.25H7.57324C9.15324 9.25 9.82324 8.58 9.82324 7V5C9.82324 3.42 9.15324 2.75 7.57324 2.75H5.57324Z" fill="#787486"/>
<path d="M19.5732 10.75H17.5732C15.1532 10.75 13.8232 9.42 13.8232 7V5C13.8232 2.58 15.1532 1.25 17.5732 1.25H19.5732C21.9932 1.25 23.3232 2.58 23.3232 5V7C23.3232 9.42 21.9932 10.75 19.5732 10.75ZM17.5732 2.75C15.9932 2.75 15.3232 3.42 15.3232 5V7C15.3232 8.58 15.9932 9.25 17.5732 9.25H19.5732C21.1532 9.25 21.8232 8.58 21.8232 7V5C21.8232 3.42 21.1532 2.75 19.5732 2.75H17.5732Z" fill="#787486"/>
<path d="M19.5732 22.75H17.5732C15.1532 22.75 13.8232 21.42 13.8232 19V17C13.8232 14.58 15.1532 13.25 17.5732 13.25H19.5732C21.9932 13.25 23.3232 14.58 23.3232 17V19C23.3232 21.42 21.9932 22.75 19.5732 22.75ZM17.5732 14.75C15.9932 14.75 15.3232 15.42 15.3232 17V19C15.3232 20.58 15.9932 21.25 17.5732 21.25H19.5732C21.1532 21.25 21.8232 20.58 21.8232 19V17C21.8232 15.42 21.1532 14.75 19.5732 14.75H17.5732Z" fill="#787486"/>
<path d="M7.57324 22.75H5.57324C3.15324 22.75 1.82324 21.42 1.82324 19V17C1.82324 14.58 3.15324 13.25 5.57324 13.25H7.57324C9.99324 13.25 11.3232 14.58 11.3232 17V19C11.3232 21.42 9.99324 22.75 7.57324 22.75ZM5.57324 14.75C3.99324 14.75 3.32324 15.42 3.32324 17V19C3.32324 20.58 3.99324 21.25 5.57324 21.25H7.57324C9.15324 21.25 9.82324 20.58 9.82324 19V17C9.82324 15.42 9.15324 14.75 7.57324 14.75H5.57324Z" fill="#787486"/>
</svg>
