<svg width="40" height="35" viewBox="0 0 40 40" fill="none" xmlns="http://www.w3.org/2000/svg">
<path d="M12.5 15.0003H14.1667M14.1667 15.0003H27.5M14.1667 15.0003V26.667C14.1667 27.109 14.3423 27.5329 14.6548 27.8455C14.9674 28.1581 15.3913 28.3337 15.8333 28.3337H24.1667C24.6087 28.3337 25.0326 28.1581 25.3452 27.8455C25.6577 27.5329 25.8333 27.109 25.8333 26.667V15.0003H14.1667ZM16.6667 15.0003V13.3337C16.6667 12.8916 16.8423 12.4677 17.1548 12.1551C17.4674 11.8426 17.8913 11.667 18.3333 11.667H21.6667C22.1087 11.667 22.5326 11.8426 22.8452 12.1551C23.1577 12.4677 23.3333 12.8916 23.3333 13.3337V15.0003M18.3333 19.167V24.167M21.6667 19.167V24.167" stroke="#667085" stroke-width="1.66667" stroke-linecap="round" stroke-linejoin="round"/>
</svg>
