<svg width="50" height="48" viewBox="0 0 57 56" fill="none" xmlns="http://www.w3.org/2000/svg">
    <circle cx="28.668" cy="28" r="28" fill="#FFE5CE" />
    <g clip-path="url(#clip0_9004_38233)">
        <path
            d="M21.7638 24.1543L23.6119 23.5885C23.7576 23.544 23.9106 23.5286 24.0621 23.5431C24.2137 23.5577 24.361 23.602 24.4954 23.6735C24.6299 23.745 24.749 23.8423 24.8459 23.9598C24.9427 24.0773 25.0155 24.2127 25.0601 24.3584C25.1046 24.504 25.12 24.657 25.1054 24.8086C25.0908 24.9602 25.0465 25.1074 24.9751 25.2419C24.9036 25.3764 24.8063 25.4954 24.6888 25.5923C24.5713 25.6892 24.4358 25.762 24.2902 25.8065L19.8554 27.163C19.7097 27.2076 19.5566 27.223 19.4049 27.2083C19.2533 27.1937 19.106 27.1493 18.9715 27.0777C18.837 27.0061 18.7179 26.9087 18.6211 26.791C18.5243 26.6734 18.4516 26.5378 18.4072 26.392L17.0507 21.9572C17.0062 21.8115 16.9907 21.6586 17.0053 21.507C17.0199 21.3554 17.0642 21.2081 17.1357 21.0737C17.2072 20.9392 17.3045 20.8201 17.422 20.7232C17.5395 20.6264 17.6749 20.5536 17.8206 20.5091C18.1147 20.4191 18.4325 20.4497 18.7041 20.5941C18.9756 20.7384 19.1787 20.9848 19.2687 21.2789L19.7788 22.9497C22.5708 18.6493 28.1094 16.8 33.0265 18.8151C34.4971 19.4178 35.8177 20.3354 36.8954 21.5035C37.9731 22.6715 38.7817 24.0616 39.2643 25.5758C39.3138 25.7216 39.3337 25.8759 39.3229 26.0295C39.3121 26.1832 39.2708 26.3331 39.2014 26.4707C39.132 26.6082 39.0359 26.7305 38.9187 26.8304C38.8015 26.9304 38.6656 27.006 38.5188 27.0528C38.3721 27.0996 38.2175 27.1167 38.0641 27.1032C37.9107 27.0896 37.7615 27.0456 37.6253 26.9737C37.489 26.9018 37.3685 26.8035 37.2707 26.6845C37.1729 26.5656 37.0997 26.4283 37.0556 26.2807C36.5657 24.7426 35.6509 23.3743 34.4166 22.334C33.1823 21.2937 31.6789 20.6236 30.08 20.4013C28.4812 20.1789 26.852 20.4133 25.3807 21.0774C23.9094 21.7415 22.6547 22.8082 21.7638 24.1543ZM36.0561 33.6559L33.9981 34.1695C33.8491 34.2104 33.6935 34.221 33.5403 34.2009C33.3871 34.1807 33.2394 34.1301 33.1061 34.0521C32.9727 33.9741 32.8563 33.8702 32.7636 33.7465C32.671 33.6229 32.604 33.4819 32.5666 33.332C32.5292 33.1821 32.5221 33.0262 32.5458 32.8735C32.5695 32.7208 32.6235 32.5744 32.7046 32.4429C32.7857 32.3114 32.8922 32.1974 33.018 32.1076C33.1438 32.0178 33.2862 31.9541 33.437 31.9202L37.6608 30.8663C37.8809 30.7618 38.1284 30.7294 38.3681 30.7735C38.5989 30.8039 38.8153 30.9031 38.9891 31.0582C39.1628 31.2133 39.2857 31.4171 39.342 31.6431L40.4643 36.1417C40.5308 36.4372 40.479 36.7469 40.3201 37.0047C40.1612 37.2625 39.9077 37.4479 39.6138 37.5212C39.32 37.5945 39.0091 37.5499 38.7477 37.397C38.4863 37.2441 38.2951 36.9949 38.215 36.7029L37.8324 35.1701C36.7161 36.7766 35.1871 38.0522 33.4066 38.8627C31.6261 39.6731 29.66 39.9884 27.7154 39.7752C25.7707 39.5621 23.9196 38.8284 22.357 37.6514C20.7943 36.4745 19.578 34.8979 18.8362 33.0878L18.5348 32.3527C18.4771 32.2118 18.4477 32.0609 18.4483 31.9086C18.4489 31.7563 18.4795 31.6057 18.5383 31.4652C18.5972 31.3248 18.6831 31.1973 18.7912 31.09C18.8993 30.9828 19.0275 30.8979 19.1684 30.8402C19.453 30.7236 19.7722 30.7249 20.0559 30.8438C20.1963 30.9026 20.3238 30.9885 20.431 31.0966C20.5383 31.2047 20.6232 31.3329 20.6809 31.4738L20.9823 32.2077C21.5734 33.6499 22.547 34.9032 23.7982 35.8325C25.0493 36.7619 26.5305 37.3319 28.0819 37.481C29.6333 37.6302 31.196 37.3528 32.6013 36.6789C34.0066 36.005 35.2012 34.959 36.0561 33.6559Z"
            fill="#F2994A" />
    </g>
    <defs>
        <clipPath id="clip0_9004_38233">
            <rect width="24" height="24" fill="white" transform="translate(16.668 17)" />
        </clipPath>
    </defs>
</svg>