<svg width="24" height="24" viewBox="0 0 24 24" fill="none" xmlns="http://www.w3.org/2000/svg">
<g clip-path="url(#clip0_2656_12395)">
<path d="M23.1426 11.2729V17.9998C23.1426 18.2271 23.0523 18.4451 22.8916 18.6059C22.7309 18.7666 22.5128 18.8569 22.2855 18.8569H1.71408C1.48675 18.8569 1.26873 18.7666 1.10798 18.6059C0.947239 18.4451 0.856934 18.2271 0.856934 17.9998V4.28551C0.856934 4.05818 0.947239 3.84016 1.10798 3.67941C1.26873 3.51867 1.48675 3.42836 1.71408 3.42836H12.2844M10.2855 18.8569L8.57122 23.1426M13.7141 18.8569L15.4284 23.1426M6.85693 23.1426H17.1426M16.2855 3.42836C16.2855 2.91978 16.4363 2.42262 16.7189 1.99975C17.0014 1.57688 17.403 1.2473 17.8729 1.05267C18.3428 0.858048 18.8598 0.807125 19.3586 0.906344C19.8574 1.00556 20.3156 1.25047 20.6752 1.61009C21.0348 1.96971 21.2797 2.42789 21.379 2.9267C21.4782 3.42551 21.4272 3.94254 21.2326 4.41241C21.038 4.88227 20.7084 5.28388 20.2855 5.56643C19.8627 5.84898 19.3655 5.99979 18.8569 5.99979V7.71408" stroke="#787486" stroke-width="1.5" stroke-linecap="round" stroke-linejoin="round"/>
<path d="M18.8568 11.9997C18.7431 11.9997 18.6341 11.9546 18.5537 11.8742C18.4734 11.7938 18.4282 11.6848 18.4282 11.5711C18.4282 11.4575 18.4734 11.3485 18.5537 11.2681C18.6341 11.1877 18.7431 11.1426 18.8568 11.1426M18.8568 11.9997C18.9705 11.9997 19.0795 11.9546 19.1598 11.8742C19.2402 11.7938 19.2854 11.6848 19.2854 11.5711C19.2854 11.4575 19.2402 11.3485 19.1598 11.2681C19.0795 11.1877 18.9705 11.1426 18.8568 11.1426" stroke="#787486" stroke-linecap="round" stroke-linejoin="round"/>
</g>
<defs>
<clipPath id="clip0_2656_12395">
<rect width="24" height="24" fill="white"/>
</clipPath>
</defs>
</svg>
