<svg width="24" height="24" viewBox="0 0 24 24" fill="none" xmlns="http://www.w3.org/2000/svg">
    <g clip-path="url(#clip0_8930_7016)">
        <path fill-rule="evenodd" clip-rule="evenodd"
            d="M11.5579 2.5C9.42082 2.5 7.37126 3.34896 5.86011 4.86011C4.34896 6.37126 3.5 8.42082 3.5 10.5579V11.29C3.92873 11.0474 4.42418 10.9088 4.95198 10.9088C6.58231 10.9088 7.90395 12.2305 7.90395 13.8608V16.0628C7.90395 17.6931 6.58231 19.0148 4.95198 19.0148C3.32165 19.0148 2 17.6931 2 16.0628V13.8609V13.8608V10.5579C2 8.02299 3.00699 5.5919 4.79945 3.79945C6.5919 2.00699 9.02299 1 11.5579 1C14.0928 1 16.5239 2.00699 18.3164 3.79945C20.1088 5.5919 21.1158 8.02299 21.1158 10.5579V13.8226L21.1161 13.8608V16.0628C21.1161 17.4679 20.1343 18.6437 18.8194 18.9418C18.5379 19.9296 17.6569 20.7251 16.5646 21.2713C15.1977 21.9547 13.3965 22.3179 11.5581 22.3179C11.1439 22.3179 10.8081 21.9821 10.8081 21.5679C10.8081 21.1537 11.1439 20.8179 11.5581 20.8179C13.2237 20.8179 14.7829 20.485 15.8938 19.9296C16.594 19.5795 17.0061 19.203 17.2207 18.8608C16.053 18.4673 15.2121 17.3632 15.2121 16.0628V13.8608C15.2121 12.2305 16.5338 10.9088 18.1641 10.9088C18.6918 10.9088 19.1871 11.0473 19.6158 11.2899V10.5579C19.6158 8.42082 18.7669 6.37126 17.2557 4.86011C15.7446 3.34896 13.695 2.5 11.5579 2.5ZM3.5 13.8609V13.8608C3.5 13.0589 4.15007 12.4088 4.95198 12.4088C5.75388 12.4088 6.40395 13.0589 6.40395 13.8608V16.0628C6.40395 16.8647 5.75388 17.5148 4.95198 17.5148C4.15007 17.5148 3.5 16.8647 3.5 16.0628V13.8609ZM19.6158 13.8609V13.834C19.6015 13.0445 18.957 12.4088 18.1641 12.4088C17.3622 12.4088 16.7121 13.0589 16.7121 13.8608V16.0628C16.7121 16.8647 17.3622 17.5148 18.1641 17.5148C18.966 17.5148 19.6161 16.8647 19.6161 16.0628V13.8801L19.6158 13.8609Z"
            fill="#474747" />
    </g>
    <defs>
        <clipPath id="clip0_8930_7016">
            <rect width="24" height="24" fill="white" />
        </clipPath>
    </defs>
</svg>
    