<svg width="25" height="24" viewBox="0 0 25 24" fill="none" xmlns="http://www.w3.org/2000/svg">
    <g clip-path="url(#clip0_8930_21011)">
        <path fill-rule="evenodd" clip-rule="evenodd"
            d="M12.0579 2.5C9.92082 2.5 7.87126 3.34896 6.36011 4.86011C4.84896 6.37126 4 8.42082 4 10.5579V12.2053C4.3876 11.8651 4.8957 11.6588 5.45198 11.6588C6.6681 11.6588 7.65395 12.6447 7.65395 13.8608V16.0628C7.65395 17.2789 6.6681 18.2648 5.45198 18.2648C4.23586 18.2648 3.25 17.2789 3.25 16.0628V14.6109C2.83579 14.6109 2.5 14.2751 2.5 13.8609V10.5579C2.5 8.02299 3.50699 5.5919 5.29945 3.79945C7.0919 2.00699 9.52299 1 12.0579 1C14.5928 1 17.0239 2.00699 18.8164 3.79945C20.6088 5.5919 21.6158 8.02299 21.6158 10.5579V13.8609C21.6158 14.275 21.2802 14.6107 20.8661 14.6109V16.0628C20.8661 17.0196 20.2558 17.8339 19.4032 18.1376C19.4103 18.179 19.414 18.2215 19.414 18.2649C19.414 19.5688 18.3964 20.6054 17.0646 21.2713C15.6977 21.9547 13.8965 22.3179 12.0581 22.3179C11.6439 22.3179 11.3081 21.9821 11.3081 21.5679C11.3081 21.1537 11.6439 20.8179 12.0581 20.8179C13.7237 20.8179 15.2829 20.485 16.3938 19.9296C17.5397 19.3567 17.914 18.713 17.914 18.2649C17.914 18.2215 17.9177 18.179 17.9248 18.1376C17.0723 17.8338 16.4621 17.0196 16.4621 16.0628V13.8608C16.4621 12.6447 17.448 11.6588 18.6641 11.6588C19.2202 11.6588 19.7282 11.865 20.1158 12.2051V10.5579C20.1158 8.42082 19.2669 6.37126 17.7557 4.86011C16.2446 3.34896 14.195 2.5 12.0579 2.5Z"
            fill="#229849" />
    </g>
    <defs>
        <clipPath id="clip0_8930_21011">
            <rect width="24" height="24" fill="white" transform="translate(0.5)" />
        </clipPath>
    </defs>
</svg>
    