<svg width="22.5" height="23" viewBox="0 0 25 23" fill="none" xmlns="http://www.w3.org/2000/svg">
    <path
        d="M23.7857 11.2734V18.0003C23.7857 18.2276 23.6954 18.4456 23.5347 18.6064C23.3739 18.7671 23.1559 18.8574 22.9286 18.8574H2.35714C2.12981 18.8574 1.9118 18.7671 1.75105 18.6064C1.59031 18.4456 1.5 18.2276 1.5 18.0003V4.28599C1.5 4.05867 1.59031 3.84065 1.75105 3.6799C1.9118 3.51916 2.12981 3.42885 2.35714 3.42885H12.9274M10.9286 18.8574L9.21429 23.1431M14.3571 18.8574L16.0714 23.1431M7.5 23.1431H17.7857M16.9286 3.42885C16.9286 2.92027 17.0794 2.42311 17.3619 2.00024C17.6445 1.57737 18.0461 1.24779 18.516 1.05316C18.9858 0.858536 19.5029 0.807613 20.0017 0.906832C20.5005 1.00605 20.9587 1.25096 21.3183 1.61058C21.6779 1.9702 21.9228 2.42838 22.022 2.92719C22.1212 3.426 22.0703 3.94303 21.8757 4.41289C21.6811 4.88276 21.3515 5.28436 20.9286 5.56692C20.5057 5.84947 20.0086 6.00028 19.5 6.00028V7.71457"
        stroke="#474747" stroke-width="1.5" stroke-linecap="round" stroke-linejoin="round" />
    <path
        d="M19.4989 11.9997C19.3852 11.9997 19.2762 11.9546 19.1958 11.8742C19.1155 11.7938 19.0703 11.6848 19.0703 11.5711C19.0703 11.4575 19.1155 11.3485 19.1958 11.2681C19.2762 11.1877 19.3852 11.1426 19.4989 11.1426M19.4989 11.9997C19.6125 11.9997 19.7216 11.9546 19.8019 11.8742C19.8823 11.7938 19.9275 11.6848 19.9275 11.5711C19.9275 11.4575 19.8823 11.3485 19.8019 11.2681C19.7216 11.1877 19.6125 11.1426 19.4989 11.1426"
        stroke="#474747" stroke-linecap="round" stroke-linejoin="round" />
</svg>
    