<svg width="22.5" height="23" viewBox="0 0 25 23" fill="none" xmlns="http://www.w3.org/2000/svg">
    <path
        d="M23.2857 11.2734V18.0003C23.2857 18.2276 23.1954 18.4456 23.0347 18.6064C22.8739 18.7671 22.6559 18.8574 22.4286 18.8574H1.85714C1.62981 18.8574 1.4118 18.7671 1.25105 18.6064C1.09031 18.4456 1 18.2276 1 18.0003V4.28599C1 4.05867 1.09031 3.84065 1.25105 3.6799C1.4118 3.51916 1.62981 3.42885 1.85714 3.42885H12.4274M10.4286 18.8574L8.71429 23.1431M13.8571 18.8574L15.5714 23.1431M7 23.1431H17.2857M16.4286 3.42885C16.4286 2.92027 16.5794 2.42311 16.8619 2.00024C17.1445 1.57737 17.5461 1.24779 18.016 1.05316C18.4858 0.858536 19.0029 0.807613 19.5017 0.906832C20.0005 1.00605 20.4587 1.25096 20.8183 1.61058C21.1779 1.9702 21.4228 2.42838 21.522 2.92719C21.6212 3.426 21.5703 3.94303 21.3757 4.41289C21.1811 4.88276 20.8515 5.28436 20.4286 5.56692C20.0057 5.84947 19.5086 6.00028 19 6.00028V7.71457"
        stroke="#229849" stroke-width="1.5" stroke-linecap="round" stroke-linejoin="round" />
    <path
        d="M18.9989 11.9997C18.8852 11.9997 18.7762 11.9546 18.6958 11.8742C18.6155 11.7938 18.5703 11.6848 18.5703 11.5711C18.5703 11.4575 18.6155 11.3485 18.6958 11.2681C18.7762 11.1877 18.8852 11.1426 18.9989 11.1426M18.9989 11.9997C19.1125 11.9997 19.2216 11.9546 19.3019 11.8742C19.3823 11.7938 19.4275 11.6848 19.4275 11.5711C19.4275 11.4575 19.3823 11.3485 19.3019 11.2681C19.2216 11.1877 19.1125 11.1426 18.9989 11.1426"
        stroke="#229849" stroke-linecap="round" stroke-linejoin="round" />
</svg>
    