<svg width="24" height="24" viewBox="0 0 24 24" fill="none" xmlns="http://www.w3.org/2000/svg">
<path d="M15.2099 20.0415L15.9321 21.3405L18.0872 20.049V22.5H19.5323V20.049L21.7105 21.354L22.4334 20.055L20.2552 18.75L22.4262 17.4487L21.704 16.149L19.5323 17.451V15H18.0872V17.4503L15.9191 16.1512L15.1969 17.451L17.3642 18.75L15.2099 20.0415ZM11.5786 17.25C11.2908 17.25 11.0147 17.3685 10.8111 17.5795C10.6075 17.7905 10.4932 18.0766 10.4932 18.375C10.4932 18.6734 10.6075 18.9595 10.8111 19.1705C11.0147 19.3815 11.2908 19.5 11.5786 19.5C11.8665 19.5 12.1426 19.3815 12.3462 19.1705C12.5498 18.9595 12.6641 18.6734 12.6641 18.375C12.6641 18.0766 12.5498 17.7905 12.3462 17.5795C12.1426 17.3685 11.8665 17.25 11.5786 17.25ZM10.855 9H12.3023V15.75H10.855V9Z" fill="#787486"/>
<path d="M13.0259 22.5H2.17112C2.04684 22.4999 1.92467 22.4667 1.81638 22.4035C1.70809 22.3403 1.61732 22.2493 1.55283 22.1392C1.48834 22.0291 1.45229 21.9037 1.44815 21.7749C1.44402 21.6462 1.47195 21.5185 1.52924 21.4042L10.9367 2.65425C11.0612 2.406 11.3202 2.25 11.5786 2.25C11.8369 2.25 12.096 2.406 12.2205 2.65425L17.1123 12.4042L15.8286 13.0958L11.5786 4.626L3.36297 21H13.0259V22.5Z" fill="#787486"/>
</svg>
