<svg width="57" height="56" viewBox="0 0 57 56" fill="none" xmlns="http://www.w3.org/2000/svg">
<circle cx="28.5" cy="28" r="28" fill="#FFF4E0"/>
<path d="M28.5 36.1673C26.2448 36.1673 24.2032 35.2532 22.7253 33.7754L28.5 28.0007V19.834C33.0103 19.834 36.6667 23.4903 36.6667 28.0007C36.6667 32.511 33.0103 36.1673 28.5 36.1673Z" fill="#F2994A"/>
<path fill-rule="evenodd" clip-rule="evenodd" d="M41.3334 27.9993C41.3334 35.087 35.5877 40.8327 28.5001 40.8327C21.4124 40.8327 15.6667 35.087 15.6667 27.9993C15.6667 20.9117 21.4124 15.166 28.5001 15.166C35.5877 15.166 41.3334 20.9117 41.3334 27.9993ZM39.0001 27.9993C39.0001 33.7984 34.2991 38.4993 28.5001 38.4993C22.7011 38.4993 18.0001 33.7984 18.0001 27.9993C18.0001 22.2004 22.7011 17.4993 28.5001 17.4993C34.2991 17.4993 39.0001 22.2004 39.0001 27.9993Z" fill="#F2994A"/>
</svg>
