<svg width="27" height="10" viewBox="0 0 17 16" fill="none" xmlns="http://www.w3.org/2000/svg">
<path fill-rule="evenodd" clip-rule="evenodd" d="M3.31675 11.2C4.64235 11.2 5.71675 12.2744 5.71675 13.6C5.71675 14.9256 4.64235 16 3.31675 16C1.99115 16 0.916748 14.9256 0.916748 13.6C0.916748 12.2744 1.99115 11.2 3.31675 11.2ZM3.31675 12.8C2.87595 12.8 2.51675 13.1592 2.51675 13.6C2.51675 14.0408 2.87595 14.4 3.31675 14.4C3.75755 14.4 4.11675 14.0408 4.11675 13.6C4.11675 13.1592 3.75755 12.8 3.31675 12.8ZM3.31675 0C4.64235 0 5.71675 1.0744 5.71675 2.4C5.71675 3.7256 4.64235 4.8 3.31675 4.8C1.99115 4.8 0.916748 3.7256 0.916748 2.4C0.916748 1.0744 1.99115 0 3.31675 0ZM3.31675 1.6C2.87595 1.6 2.51675 1.9592 2.51675 2.4C2.51675 2.8408 2.87595 3.2 3.31675 3.2C3.75755 3.2 4.11675 2.8408 4.11675 2.4C4.11675 1.9592 3.75755 1.6 3.31675 1.6ZM3.31675 5.6C4.64235 5.6 5.71675 6.6744 5.71675 8C5.71675 9.3256 4.64235 10.4 3.31675 10.4C1.99115 10.4 0.916748 9.3256 0.916748 8C0.916748 6.6744 1.99115 5.6 3.31675 5.6ZM3.31675 7.2C2.87595 7.2 2.51675 7.5592 2.51675 8C2.51675 8.4408 2.87595 8.8 3.31675 8.8C3.75755 8.8 4.11675 8.4408 4.11675 8C4.11675 7.5592 3.75755 7.2 3.31675 7.2ZM7.31675 14.4H16.9167V12.8H7.31675V14.4ZM7.31675 3.2H16.9167V1.6H7.31675V3.2ZM7.31675 8.8H16.9167V7.2H7.31675V8.8Z" fill="#777777"/>
</svg>
