<svg width="25" height="24" viewBox="0 0 25 24" fill="none" xmlns="http://www.w3.org/2000/svg">
<path d="M17.4824 18.4302H13.4824L9.03241 21.3902C8.37241 21.8302 7.48242 21.3602 7.48242 20.5602V18.4302C4.48242 18.4302 2.48242 16.4302 2.48242 13.4302V7.43018C2.48242 4.43018 4.48242 2.43018 7.48242 2.43018H17.4824C20.4824 2.43018 22.4824 4.43018 22.4824 7.43018V13.4302C22.4824 16.4302 20.4824 18.4302 17.4824 18.4302Z" stroke="#787486" stroke-width="1.5" stroke-miterlimit="10" stroke-linecap="round" stroke-linejoin="round"/>
<path d="M12.4822 11.3599V11.1499C12.4822 10.4699 12.9023 10.1099 13.3223 9.81989C13.7323 9.53989 14.1422 9.1799 14.1422 8.5199C14.1422 7.5999 13.4022 6.85986 12.4822 6.85986C11.5622 6.85986 10.8223 7.5999 10.8223 8.5199" stroke="#787486" stroke-width="1.5" stroke-linecap="round" stroke-linejoin="round"/>
<path d="M12.4779 13.75H12.4869" stroke="#787486" stroke-width="1.5" stroke-linecap="round" stroke-linejoin="round"/>
</svg>
