<svg width="62" height="57" viewBox="0 0 62 57" fill="none" xmlns="http://www.w3.org/2000/svg">
<g clip-path="url(#clip0_4800_15513)">
<path d="M43.2458 21.298H59.2604C60.7736 21.298 62 22.5059 62 23.9958V38.3605C62 43.8363 57.4922 48.2757 51.9316 48.2757H51.8839C46.3233 48.2764 41.8147 43.838 41.814 38.362V22.7082C41.8139 22.523 41.8508 22.3396 41.9228 22.1685C41.9947 21.9973 42.1001 21.8419 42.2331 21.7109C42.3661 21.5799 42.524 21.476 42.6977 21.4052C42.8715 21.3343 43.0577 21.2979 43.2458 21.298Z" fill="#5059C9"/>
<path d="M54.07 18.4584C57.6535 18.4584 60.5584 15.5977 60.5584 12.0689C60.5584 8.54011 57.6535 5.67944 54.07 5.67944C50.4865 5.67944 47.5815 8.54011 47.5815 12.0689C47.5815 15.5977 50.4865 18.4584 54.07 18.4584Z" fill="#5059C9"/>
<path d="M33.8839 18.4585C39.06 18.4585 43.2561 14.3264 43.2561 9.22923C43.2561 4.13207 39.06 0 33.8839 0C28.7078 0 24.5117 4.13207 24.5117 9.22923C24.5117 14.3264 28.7078 18.4585 33.8839 18.4585Z" fill="#7B83EB"/>
<path d="M46.3803 21.298H19.9453C18.4503 21.3345 17.2677 22.5563 17.3023 24.0285V40.4123C17.0936 49.2471 24.1914 56.5786 33.1627 56.7949C42.1341 56.5786 49.2319 49.2471 49.0233 40.4123V24.0285C49.058 22.5563 47.8754 21.3345 46.3803 21.298Z" fill="#7B83EB"/>
<path opacity="0.1" d="M34.6046 21.298V44.2573C34.6012 44.7723 34.4433 45.2747 34.1509 45.7017C33.8584 46.1286 33.4445 46.4609 32.9609 46.657C32.646 46.7882 32.3077 46.8557 31.966 46.8557H18.5708C18.3834 46.387 18.2105 45.9184 18.0661 45.4359C17.5614 43.8066 17.3039 42.1128 17.302 40.4094V24.0242C17.2674 22.5544 18.448 21.3345 19.9406 21.2982L34.6046 21.298Z" fill="black"/>
<path opacity="0.2" d="M33.1626 21.298V45.6773C33.1626 46.0138 33.0941 46.347 32.9609 46.657C32.7618 47.1332 32.4243 47.5409 31.9907 47.8288C31.5572 48.1168 31.0469 48.2723 30.524 48.2757H19.249C19.0039 47.807 18.7731 47.3384 18.5713 46.8557C18.3775 46.3916 18.209 45.9177 18.0666 45.4359C17.5619 43.8066 17.3044 42.1128 17.3025 40.4094V24.0242C17.2679 22.5544 18.4485 21.3345 19.9411 21.2982L33.1626 21.298Z" fill="black"/>
<path opacity="0.2" d="M33.1629 21.298V42.8375C33.152 44.268 31.9771 45.4252 30.5242 45.4359H18.0666C17.5619 43.8066 17.3044 42.1128 17.3025 40.4094V24.0242C17.2679 22.5544 18.4485 21.3345 19.9411 21.2982L33.1629 21.298Z" fill="black"/>
<path opacity="0.2" d="M31.7211 21.298V42.8375C31.71 44.268 30.5351 45.4252 29.0825 45.4359H18.0666C17.5619 43.8066 17.3044 42.1128 17.3025 40.4094V24.0242C17.2679 22.5544 18.4485 21.3345 19.9411 21.2982L31.7211 21.298Z" fill="black"/>
<path opacity="0.1" d="M34.6045 13.9574V18.4299C34.3594 18.4442 34.1286 18.4585 33.8835 18.4585C33.6384 18.4585 33.4076 18.4442 33.1625 18.4299C32.6759 18.3981 32.1933 18.3221 31.7208 18.2028C30.2814 17.8671 28.9431 17.2007 27.8154 16.258C26.6876 15.3153 25.8025 14.1231 25.2324 12.779C25.0333 12.3211 24.8788 11.8456 24.771 11.359H31.9659C33.4207 11.3645 34.599 12.5245 34.6045 13.9574Z" fill="black"/>
<path opacity="0.2" d="M33.1629 15.3771V18.4298C32.6762 18.398 32.1936 18.322 31.7211 18.2028C30.2817 17.867 28.9435 17.2005 27.8158 16.2579C26.6881 15.3152 25.803 14.123 25.2329 12.7789H30.5242C31.9793 12.7842 33.1573 13.9444 33.1629 15.3771Z" fill="black"/>
<path opacity="0.2" d="M33.1629 15.3771V18.4298C32.6762 18.398 32.1936 18.322 31.7211 18.2028C30.2817 17.867 28.9435 17.2005 27.8158 16.2579C26.6881 15.3152 25.803 14.123 25.2329 12.7789H30.5242C31.9793 12.7842 33.1573 13.9444 33.1629 15.3771Z" fill="black"/>
<path opacity="0.2" d="M31.7209 15.3771V18.2027C30.2814 17.867 28.9431 17.2005 27.8154 16.2578C26.6877 15.3151 25.8025 14.1229 25.2324 12.7787H29.0822C30.5373 12.7842 31.7153 13.9444 31.7209 15.3771Z" fill="black"/>
<path d="M2.64299 12.7787H29.0778C30.5377 12.7787 31.721 13.944 31.721 15.3814V41.4132C31.721 42.8506 30.5377 44.0159 29.078 44.0159H2.64299C1.18333 44.0159 0 42.8506 0 41.4132V15.3816C0 13.9437 1.18333 12.7787 2.64299 12.7787Z" fill="url(#paint0_linear_4800_15513)"/>
<path d="M22.8158 22.6867H17.5313V36.8571H14.1646V22.6867H8.90479V19.9379H22.8158V22.6867Z" fill="white"/>
</g>
<defs>
<linearGradient id="paint0_linear_4800_15513" x1="551.057" y1="-190.577" x2="2573.71" y2="3366.79" gradientUnits="userSpaceOnUse">
<stop stop-color="#5A62C3"/>
<stop offset="0.5" stop-color="#4D55BD"/>
<stop offset="1" stop-color="#3940AB"/>
</linearGradient>
<clipPath id="clip0_4800_15513">
<rect width="62" height="57" fill="white"/>
</clipPath>
</defs>
</svg>
