<svg width="25" height="24" viewBox="0 0 25 24" fill="none" xmlns="http://www.w3.org/2000/svg">
<path d="M12.502 2.91016C9.19202 2.91016 6.50202 5.60016 6.50202 8.91016V11.8002C6.50202 12.4102 6.24202 13.3402 5.93202 13.8602L4.78202 15.7702C4.07202 16.9502 4.56202 18.2602 5.86202 18.7002C10.172 20.1402 14.822 20.1402 19.132 18.7002C20.342 18.3002 20.872 16.8702 20.212 15.7702L19.062 13.8602C18.762 13.3402 18.502 12.4102 18.502 11.8002V8.91016C18.502 5.61016 15.802 2.91016 12.502 2.91016Z" stroke="#787486" stroke-width="1.5" stroke-miterlimit="10" stroke-linecap="round"/>
<path d="M14.3523 3.19994C14.0423 3.10994 13.7223 3.03994 13.3923 2.99994C12.4323 2.87994 11.5123 2.94994 10.6523 3.19994C10.9423 2.45994 11.6623 1.93994 12.5023 1.93994C13.3423 1.93994 14.0623 2.45994 14.3523 3.19994Z" stroke="#787486" stroke-width="1.5" stroke-miterlimit="10" stroke-linecap="round" stroke-linejoin="round"/>
<path d="M15.502 19.0601C15.502 20.7101 14.152 22.0601 12.502 22.0601C11.682 22.0601 10.922 21.7201 10.382 21.1801C9.84195 20.6401 9.50195 19.8801 9.50195 19.0601" stroke="#787486" stroke-width="1.5" stroke-miterlimit="10"/>
<circle cx="18.4824" cy="4" r="3" fill="#F2994A"/>
</svg>
