<svg width="56" height="56" viewBox="0 0 56 56" fill="none" xmlns="http://www.w3.org/2000/svg">
<circle cx="28" cy="28" r="28" fill="#FFF7EC"/>
<path d="M29.6008 21.6931L29.6008 33.3061C29.6008 34.4086 29.9137 34.8496 30.7043 34.8496L32.6973 34.8496C33.4878 34.8496 33.8008 34.4086 33.8008 33.3061L33.8008 21.6931C33.8008 20.5906 33.4878 20.1496 32.6973 20.1496L30.7043 20.1496C29.9137 20.1496 29.6008 20.5906 29.6008 21.6931Z" fill="#F2994A"/>
<path d="M21.1984 21.6931L21.1984 33.3061C21.1984 34.4086 21.5114 34.8496 22.302 34.8496L24.2949 34.8496C25.08 34.8496 25.3984 34.4086 25.3984 33.3061L25.3984 21.6931C25.3984 20.5906 25.0855 20.1496 24.2949 20.1496L22.302 20.1496C21.5114 20.1496 21.1984 20.5906 21.1984 21.6931Z" fill="#F2994A"/>
</svg>
