<svg width="56" height="56" viewBox="0 0 56 56" fill="none" xmlns="http://www.w3.org/2000/svg">
<circle cx="28" cy="28" r="28" fill="#FFF4E0"/>
<path d="M28 36.1667C25.7448 36.1667 23.7032 35.2526 22.2253 33.7748L28 28V19.8333C32.5103 19.8333 36.1667 23.4897 36.1667 28C36.1667 32.5103 32.5103 36.1667 28 36.1667Z" fill="#F2994A"/>
<path fill-rule="evenodd" clip-rule="evenodd" d="M40.8334 28C40.8334 35.0876 35.0876 40.8333 28 40.8333C20.9124 40.8333 15.1667 35.0876 15.1667 28C15.1667 20.9123 20.9124 15.1667 28 15.1667C35.0876 15.1667 40.8334 20.9123 40.8334 28ZM38.5 28C38.5 33.799 33.7991 38.5 28 38.5C22.201 38.5 17.5 33.799 17.5 28C17.5 22.201 22.201 17.5 28 17.5C33.7991 17.5 38.5 22.201 38.5 28Z" fill="#F2994A"/>
</svg>
