<svg width="81" height="81" viewBox="0 0 81 81" fill="none" xmlns="http://www.w3.org/2000/svg">
<path d="M60.7517 5.81445L74.6617 20.3145V75.4544H22.6992V75.6344H74.8392V20.497L60.7517 5.81445Z" fill="#909090"/>
<path d="M60.577 5.63477H22.5195V75.4548H74.6595V20.3173L60.577 5.63477Z" fill="#F4F4F4"/>
<path d="M22.1391 9.38477H6.16406V26.4523H56.4141V9.38477H22.1391Z" fill="#7A7B7C"/>
<path d="M56.6808 26.162H6.48828V9.08203H56.6808V26.162Z" fill="#DD2025"/>
<path d="M23.1308 11.9694H19.8633V23.9694H22.4333V19.9219L23.0008 19.9544C23.5524 19.9468 24.0989 19.848 24.6183 19.6619C25.0748 19.5069 25.4944 19.2592 25.8508 18.9344C26.2162 18.628 26.5033 18.239 26.6883 17.7994C26.9414 17.0712 27.031 16.2962 26.9508 15.5294C26.9365 14.9816 26.8405 14.4389 26.6658 13.9194C26.5084 13.544 26.2743 13.2055 25.9785 12.9257C25.6828 12.6458 25.3319 12.4309 24.9483 12.2944C24.6176 12.172 24.2748 12.0848 23.9258 12.0344C23.6621 11.9915 23.3954 11.9698 23.1283 11.9694M22.6558 17.7044H22.4333V14.0044H22.9158C23.1287 13.9891 23.3424 14.0218 23.541 14.1001C23.7396 14.1784 23.9181 14.3004 24.0633 14.4569C24.3641 14.8595 24.5248 15.3494 24.5208 15.8519C24.5208 16.4669 24.5208 17.0244 23.9658 17.4169C23.5661 17.6371 23.1109 17.7387 22.6558 17.7044ZM31.8333 11.9369C31.5558 11.9369 31.2858 11.9569 31.0958 11.9644L30.5008 11.9794H28.5508V23.9794H30.8458C31.7227 24.002 32.5957 23.8534 33.4158 23.5419C34.0761 23.2812 34.6605 22.8592 35.1158 22.3144C35.5619 21.7673 35.8805 21.1276 36.0483 20.4419C36.2455 19.6668 36.3413 18.8693 36.3333 18.0694C36.3822 17.1248 36.3091 16.1779 36.1158 15.2519C35.9307 14.5712 35.5882 13.9434 35.1158 13.4194C34.7453 12.9957 34.2895 12.655 33.7783 12.4194C33.3403 12.2164 32.8795 12.067 32.4058 11.9744C32.2174 11.9436 32.0267 11.9293 31.8358 11.9319M31.3808 21.7744H31.1308V14.1144H31.1633C31.6787 14.0548 32.2002 14.1479 32.6633 14.3819C33.0024 14.6528 33.2788 14.9939 33.4733 15.3819C33.6832 15.7903 33.8042 16.2385 33.8283 16.6969C33.8508 17.2469 33.8283 17.6969 33.8283 18.0694C33.8375 18.4985 33.8099 18.9276 33.7458 19.3519C33.6671 19.7871 33.5248 20.2083 33.3233 20.6019C33.0957 20.9691 32.7848 21.2774 32.4158 21.5019C32.1076 21.702 31.7421 21.7951 31.3758 21.7669M44.0758 11.9794H38.0008V23.9794H40.5708V19.2194H43.8208V16.9894H40.5708V14.2094H44.0708V11.9794" fill="#464648"/>
<path d="M54.9537 51.2725C54.9537 51.2725 62.9237 49.8275 62.9237 52.55C62.9237 55.2725 57.9862 54.165 54.9537 51.2725ZM49.0612 51.48C47.7947 51.7591 46.5606 52.1688 45.3787 52.7025L46.3787 50.4525C47.3787 48.2025 48.4162 45.135 48.4162 45.135C49.6065 47.1453 50.9951 49.0314 52.5612 50.765C51.3822 50.9407 50.2138 51.181 49.0612 51.485V51.48ZM45.9062 35.23C45.9062 32.8575 46.6737 32.21 47.2712 32.21C47.8687 32.21 48.5412 32.4975 48.5637 34.5575C48.3687 36.6289 47.935 38.6708 47.2712 40.6425C46.3588 38.9882 45.8878 37.1267 45.9037 35.2375L45.9062 35.23ZM34.2837 61.52C31.8387 60.0575 39.4112 55.555 40.7837 55.41C40.7762 55.4125 36.8437 63.05 34.2837 61.52ZM65.2512 52.8725C65.2262 52.6225 65.0012 49.855 60.0762 49.9725C58.0233 49.9365 55.9712 50.0813 53.9437 50.405C51.9784 48.4269 50.2867 46.1945 48.9137 43.7675C49.7782 41.2658 50.3021 38.659 50.4712 36.0175C50.3987 33.0175 49.6812 31.2975 47.3812 31.3225C45.0812 31.3475 44.7462 33.36 45.0487 36.355C45.3447 38.3677 45.9037 40.3328 46.7112 42.2C46.7112 42.2 45.6487 45.5075 44.2437 48.7975C42.8387 52.0875 41.8787 53.8125 41.8787 53.8125C39.4351 54.607 37.135 55.7887 35.0662 57.3125C33.0062 59.23 32.1687 60.7025 33.2537 62.175C34.1887 63.445 37.4612 63.7325 40.3862 59.9C41.9377 57.9186 43.3574 55.8375 44.6362 53.67C44.6362 53.67 49.0962 52.4475 50.4837 52.1125C51.8712 51.7775 53.5487 51.5125 53.5487 51.5125C53.5487 51.5125 57.6212 55.61 61.5487 55.465C65.4762 55.32 65.2862 53.1175 65.2612 52.8775" fill="#DD2025"/>
<path d="M60.3867 5.82715V20.5096H74.4692L60.3867 5.82715Z" fill="#909090"/>
<path d="M60.5781 5.63477V20.3173H74.6606L60.5781 5.63477Z" fill="#F4F4F4"/>
<path d="M22.9394 11.7771H19.6719V23.7771H22.2519V19.7321L22.8219 19.7646C23.3735 19.757 23.92 19.6581 24.4394 19.4721C24.8959 19.317 25.3155 19.0694 25.6719 18.7446C26.0345 18.4373 26.319 18.0483 26.5019 17.6096C26.755 16.8813 26.8446 16.1063 26.7644 15.3396C26.7501 14.7917 26.6541 14.249 26.4794 13.7296C26.322 13.3541 26.0879 13.0156 25.7921 12.7358C25.4964 12.456 25.1455 12.241 24.7619 12.1046C24.4296 11.9809 24.0852 11.8929 23.7344 11.8421C23.4707 11.7991 23.204 11.7774 22.9369 11.7771M22.4644 17.5121H22.2419V13.8121H22.7269C22.9398 13.7967 23.1535 13.8294 23.3521 13.9077C23.5507 13.986 23.7292 14.108 23.8744 14.2646C24.1752 14.6671 24.3359 15.1571 24.3319 15.6596C24.3319 16.2746 24.3319 16.8321 23.7769 17.2246C23.3771 17.4447 22.922 17.5438 22.4669 17.5096M31.6419 11.7446C31.3644 11.7446 31.0944 11.7646 30.9044 11.7721L30.3169 11.7871H28.3669V23.7871H30.6619C31.5388 23.8096 32.4118 23.661 33.2319 23.3496C33.8922 23.0888 34.4766 22.6668 34.9319 22.1221C35.378 21.5749 35.6966 20.9353 35.8644 20.2496C36.0616 19.4744 36.1574 18.6769 36.1494 17.8771C36.1983 16.9324 36.1252 15.9855 35.9319 15.0596C35.7468 14.3788 35.4042 13.7511 34.9319 13.2271C34.5614 12.8033 34.1056 12.4626 33.5944 12.2271C33.1564 12.0241 32.6956 11.8746 32.2219 11.7821C32.0335 11.7512 31.8428 11.737 31.6519 11.7396M31.1969 21.5821H30.9469V13.9221H30.9794C31.4948 13.8625 32.0163 13.9555 32.4794 14.1896C32.8185 14.4604 33.0949 14.8016 33.2894 15.1896C33.4993 15.5979 33.6203 16.0461 33.6444 16.5046C33.6669 17.0546 33.6444 17.5046 33.6444 17.8771C33.6536 18.3061 33.626 18.7352 33.5619 19.1596C33.4832 19.5947 33.3409 20.0159 33.1394 20.4096C32.9118 20.7767 32.6009 21.085 32.2319 21.3096C31.9237 21.5096 31.5582 21.6027 31.1919 21.5746M43.8844 11.7871H37.8094V23.7871H40.3794V19.0271H43.6294V16.7971H40.3794V14.0171H43.8794V11.7871" fill="white"/>
</svg>
