<svg width="21" height="18" viewBox="0 0 10 11" fill="none" xmlns="http://www.w3.org/2000/svg">
<path fill-rule="evenodd" clip-rule="evenodd" d="M5.491 1.00684C5.491 0.730694 5.26714 0.506836 4.991 0.506836C4.71485 0.506836 4.491 0.730694 4.491 1.00684V4.99964H0.5C0.223858 4.99964 0 5.2235 0 5.49964C0 5.77579 0.223858 5.99964 0.5 5.99964H4.491V9.99234C4.491 10.2685 4.71485 10.4923 4.991 10.4923C5.26714 10.4923 5.491 10.2685 5.491 9.99234V5.99964H9.48551C9.76165 5.99964 9.98551 5.77579 9.98551 5.49964C9.98551 5.2235 9.76165 4.99964 9.48551 4.99964H5.491V1.00684Z" fill="#BEBCC2"/>
</svg>
