<svg width="16" height="18" viewBox="0 0 17 20" fill="none" xmlns="http://www.w3.org/2000/svg">
<path d="M9.07232 8.36359C9.05959 8.35337 9.04712 8.34349 9.03488 8.33396V14.3023C9.03488 14.6587 8.74595 14.9477 8.38953 14.9477C8.03312 14.9477 7.74419 14.6587 7.74419 14.3023V8.33396C7.73195 8.34349 7.71948 8.35337 7.70675 8.36359C7.42914 8.58654 7.09912 8.91812 6.60884 9.4128L5.40604 10.6264C5.15514 10.8795 4.74653 10.8814 4.49338 10.6305C4.24024 10.3796 4.23842 9.97095 4.48931 9.7178L5.71835 8.47775C6.17558 8.01639 6.55694 7.6316 6.89856 7.35725C7.25688 7.06948 7.63345 6.85061 8.09225 6.79213C8.28965 6.76696 8.48942 6.76696 8.68682 6.79213C9.14562 6.85061 9.5222 7.06948 9.88051 7.35725C10.2221 7.6316 10.6035 8.01638 11.0607 8.47773L12.2898 9.7178C12.5407 9.97095 12.5388 10.3796 12.2857 10.6305C12.0325 10.8814 11.6239 10.8795 11.373 10.6264L10.1702 9.4128C9.67995 8.91812 9.34993 8.58654 9.07232 8.36359Z" fill="#919191"/>
<path fill-rule="evenodd" clip-rule="evenodd" d="M14.7396 1.69492C14.0458 1.19084 13.2331 0.965122 12.2302 0.856464C11.2475 0.749987 10.0087 0.749993 8.42847 0.75H8.38001C7.38183 0.75 6.52363 0.75 5.78604 0.775271C4.17401 0.830501 2.98917 1.00495 2.03951 1.69492C1.61947 2.00009 1.25009 2.36947 0.944921 2.7895C0.254952 3.73917 0.0805011 4.92401 0.025271 6.53604C1.15397e-07 7.27364 1.15102e-07 8.13185 1.15102e-07 9.13005V10.8994C-6.9626e-06 12.4797 -1.25014e-05 13.7184 0.106463 14.7012C0.215121 15.7041 0.440836 16.5167 0.944921 17.2105C1.25009 17.6305 1.61947 17.9999 2.03951 18.3051C2.73332 18.8092 3.54592 19.0349 4.54883 19.1435C5.53158 19.25 6.77028 19.25 8.35052 19.25H8.42849C10.0087 19.25 11.2475 19.25 12.2302 19.1435C13.2331 19.0349 14.0458 18.8092 14.7396 18.3051C15.1596 17.9999 15.529 17.6305 15.8341 17.2105C16.3382 16.5167 16.5639 15.7041 16.6726 14.7012C16.7791 13.7184 16.7791 12.4797 16.7791 10.8995V9.10058C16.7791 7.52035 16.7791 6.28158 16.6726 5.29883C16.5639 4.29592 16.3382 3.48332 15.8341 2.7895C15.529 2.36947 15.1596 2.00009 14.7396 1.69492ZM8.38953 2.0407C10.0172 2.0407 11.1861 2.04158 12.0912 2.13965C12.9843 2.23641 13.5438 2.42153 13.9809 2.73912C14.2914 2.96468 14.5644 3.2377 14.79 3.54816C15.1075 3.98528 15.2927 4.54477 15.3894 5.43785C15.4875 6.34302 15.4884 7.5119 15.4884 9.13953V10.8605C15.4884 12.4881 15.4875 13.657 15.3894 14.5621C15.2927 15.4552 15.1075 16.0147 14.79 16.4518C14.5644 16.7623 14.2914 17.0353 13.9809 17.2609C13.5438 17.5785 12.9843 17.7636 12.0912 17.8603C11.1861 17.9584 10.0172 17.9593 8.38953 17.9593C6.7619 17.9593 5.59302 17.9584 4.68785 17.8603C3.79477 17.7636 3.23528 17.5785 2.79816 17.2609C2.4877 17.0353 2.21468 16.7623 1.98912 16.4518C1.67153 16.0147 1.48641 15.4552 1.38965 14.5621C1.29158 13.657 1.2907 12.4881 1.2907 10.8605V9.13953C1.2907 8.40956 1.29074 7.76986 1.30001 7.20192C1.70843 7.19816 2.00909 7.18545 2.2798 7.14257C4.39687 6.80726 6.05726 5.14687 6.39257 3.0298C6.43545 2.75909 6.44816 2.45843 6.45192 2.05C7.01986 2.04074 7.65956 2.0407 8.38953 2.0407ZM2.07789 5.86777C1.90147 5.89571 1.69717 5.90637 1.34873 5.91039C1.42942 4.73987 1.61436 4.06397 1.98912 3.54816C2.21468 3.2377 2.4877 2.96468 2.79816 2.73912C3.31397 2.36436 3.98987 2.17942 5.16039 2.09873C5.15637 2.44717 5.14571 2.65147 5.11777 2.82789C4.86993 4.39268 3.64268 5.61993 2.07789 5.86777Z" fill="#919191"/>
</svg>
