<svg width="18" height="16" viewBox="0 0 18 18" fill="none" xmlns="http://www.w3.org/2000/svg">
<path d="M6.95513 3.58974C5.59212 3.58974 4.48718 4.69468 4.48718 6.05769V6.95513C4.48718 7.32686 4.78853 7.62821 5.16026 7.62821C5.53199 7.62821 5.83333 7.32686 5.83333 6.95513V6.05769C5.83333 5.43814 6.33558 4.9359 6.95513 4.9359H8.07692V12.5641H6.95513C6.5834 12.5641 6.28205 12.8654 6.28205 13.2372C6.28205 13.6089 6.5834 13.9103 6.95513 13.9103H10.5449C10.9166 13.9103 11.2179 13.6089 11.2179 13.2372C11.2179 12.8654 10.9166 12.5641 10.5449 12.5641H9.42308V4.9359H10.5449C11.1644 4.9359 11.6667 5.43814 11.6667 6.05769V6.95513C11.6667 7.32686 11.968 7.62821 12.3397 7.62821C12.7115 7.62821 13.0128 7.32686 13.0128 6.95513V6.05769C13.0128 4.69468 11.9079 3.58974 10.5449 3.58974H6.95513Z" fill="#229849"/>
<path fill-rule="evenodd" clip-rule="evenodd" d="M12.7557 0.111038C11.7307 -1.30385e-05 10.4388 -7.20955e-06 8.79061 1.18764e-07H8.70939C7.06122 -7.20955e-06 5.76927 -1.30385e-05 4.74427 0.111038C3.69828 0.224365 2.85076 0.459778 2.12713 0.985521C1.68906 1.3038 1.3038 1.68906 0.985521 2.12713C0.459778 2.85076 0.224365 3.69828 0.111038 4.74427C-1.30385e-05 5.76927 -7.20955e-06 7.06122 1.18764e-07 8.70939V8.79061C-7.20955e-06 10.4388 -1.30385e-05 11.7307 0.111038 12.7557C0.224365 13.8017 0.459778 14.6492 0.985521 15.3729C1.3038 15.8109 1.68906 16.1962 2.12713 16.5145C2.85076 17.0402 3.69828 17.2756 4.74427 17.389C5.76925 17.5 7.06117 17.5 8.7093 17.5H8.79063C10.4388 17.5 11.7308 17.5 12.7557 17.389C13.8017 17.2756 14.6492 17.0402 15.3729 16.5145C15.8109 16.1962 16.1962 15.8109 16.5145 15.3729C17.0402 14.6492 17.2756 13.8017 17.389 12.7557C17.5 11.7308 17.5 10.4388 17.5 8.7907V8.70937C17.5 7.06124 17.5 5.76925 17.389 4.74427C17.2756 3.69828 17.0402 2.85076 16.5145 2.12713C16.1962 1.68906 15.8109 1.3038 15.3729 0.985521C14.6492 0.459778 13.8017 0.224365 12.7557 0.111038ZM2.91838 2.07458C3.37428 1.74335 3.95781 1.55028 4.88927 1.44936C5.83333 1.34708 7.05244 1.34615 8.75 1.34615C10.4476 1.34615 11.6667 1.34708 12.6107 1.44936C13.5422 1.55028 14.1257 1.74335 14.5816 2.07458C14.9054 2.30984 15.1902 2.59459 15.4254 2.91838C15.7566 3.37428 15.9497 3.95781 16.0506 4.88927C16.1529 5.83333 16.1538 7.05244 16.1538 8.75C16.1538 10.4476 16.1529 11.6667 16.0506 12.6107C15.9497 13.5422 15.7566 14.1257 15.4254 14.5816C15.1902 14.9054 14.9054 15.1902 14.5816 15.4254C14.1257 15.7566 13.5422 15.9497 12.6107 16.0506C11.6667 16.1529 10.4476 16.1538 8.75 16.1538C7.05244 16.1538 5.83333 16.1529 4.88927 16.0506C3.95781 15.9497 3.37428 15.7566 2.91838 15.4254C2.59459 15.1902 2.30984 14.9054 2.07458 14.5816C1.74335 14.1257 1.55028 13.5422 1.44936 12.6107C1.34708 11.6667 1.34615 10.4476 1.34615 8.75C1.34615 7.05244 1.34708 5.83333 1.44936 4.88927C1.55028 3.95781 1.74335 3.37428 2.07458 2.91838C2.30984 2.59459 2.59459 2.30984 2.91838 2.07458Z" fill="#229849"/>
</svg>
