<svg width="18" height="16" viewBox="0 0 18 20" fill="none" xmlns="http://www.w3.org/2000/svg">
<path d="M5.44186 11.876C5.44186 11.5003 5.74641 11.1957 6.12209 11.1957H11.564C11.9396 11.1957 12.2442 11.5003 12.2442 11.876C12.2442 12.2516 11.9396 12.5562 11.564 12.5562H6.12209C5.74641 12.5562 5.44186 12.2516 5.44186 11.876Z" fill="#229849"/>
<path fill-rule="evenodd" clip-rule="evenodd" d="M6.12209 0.312012C6.49778 0.312012 6.80233 0.616562 6.80233 0.992244V2.13558C7.40931 2.12596 8.08374 2.12597 8.833 2.12597H8.85305C9.60231 2.12597 10.2767 2.12596 10.8837 2.13558V0.992244C10.8837 0.616562 11.1883 0.312012 11.564 0.312012C11.9396 0.312012 12.2442 0.616562 12.2442 0.992244V2.18363C13.6155 2.2696 14.6689 2.49179 15.5363 3.12196C15.979 3.44363 16.3684 3.83298 16.69 4.27571C17.4173 5.27671 17.6012 6.5256 17.6594 8.22477C17.686 9.00224 17.686 9.90684 17.686 10.959V10.979C17.686 12.0311 17.686 12.9357 17.6594 13.7132C17.6012 15.4124 17.4173 16.6613 16.69 17.6623C16.3684 18.105 15.979 18.4943 15.5363 18.816C14.5353 19.5433 13.2864 19.7272 11.5872 19.7854C10.8097 19.812 9.90506 19.812 8.85281 19.812H8.80196C7.13628 19.812 5.8306 19.812 4.79471 19.6998C3.7376 19.5853 2.88107 19.3473 2.14975 18.816C1.70701 18.4943 1.31766 18.105 0.995999 17.6623C0.464666 16.9309 0.22675 16.0744 0.112219 15.0173C-1.32853e-05 13.9814 -7.3917e-06 12.6757 1.22645e-07 11.01L2.30765e-07 10.9589C-3.95354e-08 9.90681 -2.55096e-07 9.00223 0.0266365 8.22477C0.0848524 6.5256 0.268734 5.27671 0.995999 4.27571C1.31767 3.83298 1.70701 3.44363 2.14975 3.12196C3.01711 2.49179 4.07059 2.2696 5.44186 2.18363V0.992244C5.44186 0.616562 5.74641 0.312012 6.12209 0.312012ZM5.44186 3.54743C4.20651 3.63238 3.49347 3.82732 2.94941 4.2226C2.62217 4.46036 2.33439 4.74814 2.09664 5.07537C1.70135 5.61944 1.50642 6.33248 1.42146 7.56783H16.2646C16.1796 6.33248 15.9847 5.61943 15.5894 5.07537C15.3517 4.74814 15.0639 4.46036 14.7366 4.2226C14.1926 3.82732 13.4795 3.63238 12.2442 3.54743V3.71317C12.2442 4.08886 11.9396 4.39341 11.564 4.39341C11.1883 4.39341 10.8837 4.08886 10.8837 3.71317V3.49621C10.2855 3.48647 9.61175 3.48643 8.84302 3.48643C8.0743 3.48643 7.40056 3.48647 6.80233 3.49621V3.71317C6.80233 4.08886 6.49778 4.39341 6.12209 4.39341C5.74641 4.39341 5.44186 4.08886 5.44186 3.71317V3.54743ZM16.3158 8.92829H1.37025C1.36051 9.52652 1.36047 10.2003 1.36047 10.969C1.36047 12.6846 1.3614 13.9167 1.46477 14.8708C1.56676 15.8121 1.76189 16.4019 2.09664 16.8626C2.33439 17.1898 2.62217 17.4776 2.94941 17.7154C3.41016 18.0501 3.99989 18.2453 4.94125 18.3472C5.89534 18.4506 7.12741 18.4515 8.84302 18.4515C9.61246 18.4515 10.2867 18.4515 10.8854 18.4417C10.8893 18.0112 10.9027 17.6943 10.9479 17.409C11.3014 15.1775 13.0515 13.4273 15.283 13.0739C15.5684 13.0287 15.8853 13.0153 16.3158 13.0113C16.3255 12.4127 16.3256 11.7384 16.3256 10.969C16.3256 10.2003 16.3255 9.52652 16.3158 8.92829ZM16.2644 14.3727C15.8971 14.3769 15.6818 14.3882 15.4958 14.4176C13.8465 14.6788 12.5529 15.9724 12.2916 17.6218C12.2622 17.8078 12.251 18.0231 12.2467 18.3904C13.4805 18.3053 14.1929 18.1104 14.7366 17.7154C15.0639 17.4776 15.3517 17.1898 15.5894 16.8626C15.9844 16.3189 16.1794 15.6065 16.2644 14.3727Z" fill="#229849"/>
</svg>
