<svg width="16" height="16" viewBox="0 0 16 16" fill="none" xmlns="http://www.w3.org/2000/svg">
<path d="M11.8974 8C11.8974 8.30825 11.6219 8.55814 11.2821 8.55814H4.71795C4.37808 8.55814 4.10256 8.30825 4.10256 8C4.10256 7.69175 4.37808 7.44186 4.71795 7.44186L11.2821 7.44186C11.6219 7.44186 11.8974 7.69175 11.8974 8Z" fill="#229849"/>
<path d="M8.20513 10.9767C8.20513 10.6685 8.48065 10.4186 8.82051 10.4186H11.2821C11.6219 10.4186 11.8974 10.6685 11.8974 10.9767C11.8974 11.285 11.6219 11.5349 11.2821 11.5349H8.82051C8.48065 11.5349 8.20513 11.285 8.20513 10.9767Z" fill="#229849"/>
<path fill-rule="evenodd" clip-rule="evenodd" d="M11.3086 0.0623065C12.1904 0.125151 12.9271 0.254307 13.5616 0.544504C13.7347 0.623694 13.8988 0.714172 14.0552 0.81723C14.4557 1.08116 14.808 1.40062 15.099 1.7639C15.5796 2.36395 15.7949 3.06675 15.8985 3.93412C16 4.78408 16 5.85541 16 7.22212V8.77788C16 10.1446 16 11.2159 15.8985 12.0659C15.7949 12.9333 15.5796 13.6361 15.099 14.2361C14.808 14.5994 14.4557 14.9188 14.0552 15.1828C13.3936 15.6187 12.6187 15.8139 11.6624 15.9079C10.7252 16 9.54404 16 8.03715 16H7.96285C6.45596 16 5.27476 16 4.33762 15.9079C3.38128 15.8139 2.60641 15.6187 1.94481 15.1828C1.54428 14.9188 1.19205 14.5994 0.901048 14.2361C0.420368 13.6361 0.205133 12.9333 0.101521 12.0659C-1.20187e-05 11.2159 -6.68703e-06 10.1446 1.10954e-07 8.77786V7.22214C-6.68703e-06 5.85542 -1.20187e-05 4.78408 0.101521 3.93412C0.205133 3.06675 0.420368 2.36395 0.901048 1.7639C1.19205 1.40063 1.54428 1.08116 1.94481 0.81723C2.24648 0.618443 2.57394 0.468265 2.93546 0.355129C3.5334 0.168007 4.22294 0.0831046 5.03371 0.0414681C5.84124 -1.69943e-06 6.81226 -9.01018e-07 7.98327 3.04781e-08H8.02501C9.35832 -2.40915e-06 10.4344 -4.40797e-06 11.3086 0.0623065ZM11.2122 1.17515C10.3917 1.11667 9.36347 1.11628 8 1.11628C6.80901 1.11628 5.87215 1.11648 5.10329 1.15596C4.83538 1.16972 4.59315 1.18807 4.37265 1.21195C5.05511 1.82364 5.60342 2.29549 6.0929 2.6508C6.75129 3.12874 7.24889 3.3542 7.75313 3.42664C8.11455 3.47856 8.48273 3.47856 8.84416 3.42664C9.33431 3.35623 9.81832 3.14117 10.4497 2.69016C10.932 2.34569 11.4715 1.8852 12.1429 1.28509C11.8758 1.23653 11.5694 1.20061 11.2122 1.17515ZM13.3751 1.74932C12.5314 2.51092 11.8374 3.11986 11.2112 3.56713C10.4927 4.08038 9.81467 4.41742 9.03669 4.52917C8.5477 4.59942 8.04958 4.59942 7.56059 4.52917C6.76024 4.4142 6.06559 4.06077 5.32383 3.52232C4.65966 3.04019 3.91456 2.37663 2.99225 1.54138C2.87639 1.59439 2.76923 1.65377 2.66824 1.72032C2.37219 1.9154 2.11185 2.15152 1.89676 2.42003C1.59392 2.79808 1.4174 3.28196 1.32513 4.05436C1.23161 4.8372 1.23077 5.84813 1.23077 7.25581V8.74419C1.23077 10.1519 1.23161 11.1628 1.32513 11.9456C1.4174 12.718 1.59392 13.2019 1.89676 13.58C2.11185 13.8485 2.37219 14.0846 2.66824 14.2797C3.08506 14.5544 3.61857 14.7145 4.47019 14.7981C5.33333 14.883 6.44794 14.8837 8 14.8837C9.55206 14.8837 10.6667 14.883 11.5298 14.7981C12.3814 14.7145 12.9149 14.5544 13.3318 14.2797C13.6278 14.0846 13.8882 13.8485 14.1032 13.58C14.4061 13.2019 14.5826 12.718 14.6749 11.9456C14.7684 11.1628 14.7692 10.1519 14.7692 8.74419V7.25581C14.7692 5.84813 14.7684 4.8372 14.6749 4.05436C14.5826 3.28196 14.4061 2.79808 14.1032 2.42003C13.8987 2.16469 13.6532 1.93864 13.3751 1.74932Z" fill="#229849"/>
</svg>
