<svg width="24" height="16" viewBox="0 0 24 17" fill="none" xmlns="http://www.w3.org/2000/svg">
<path fill-rule="evenodd" clip-rule="evenodd" d="M11.75 0C9.67893 0 8 1.67893 8 3.75C8 5.82107 9.67893 7.5 11.75 7.5C13.8211 7.5 15.5 5.82107 15.5 3.75C15.5 1.67893 13.8211 0 11.75 0ZM9.5 3.75C9.5 2.50736 10.5074 1.5 11.75 1.5C12.9926 1.5 14 2.50736 14 3.75C14 4.99264 12.9926 6 11.75 6C10.5074 6 9.5 4.99264 9.5 3.75Z" fill="#229849"/>
<path fill-rule="evenodd" clip-rule="evenodd" d="M8.75 9C6.67893 9 5 10.6789 5 12.75C5 14.8211 6.67893 16.5 8.75 16.5H14.75C16.8211 16.5 18.5 14.8211 18.5 12.75C18.5 10.6789 16.8211 9 14.75 9H8.75ZM6.5 12.75C6.5 11.5074 7.50736 10.5 8.75 10.5H14.75C15.9926 10.5 17 11.5074 17 12.75C17 13.9926 15.9926 15 14.75 15H8.75C7.50736 15 6.5 13.9926 6.5 12.75Z" fill="#229849"/>
<path d="M7.50214 6.38865C7.34441 6.13527 7.04846 6 6.75 6C5.50736 6 4.5 4.99264 4.5 3.75C4.5 2.50736 5.50736 1.5 6.75 1.5C7.04846 1.5 7.34441 1.36473 7.50214 1.11135C7.50912 1.10014 7.51613 1.08896 7.5232 1.07782C7.7858 0.663308 7.65275 0.0764006 7.165 0.0227032C7.02873 0.00770099 6.89027 0 6.75 0C4.67893 0 3 1.67893 3 3.75C3 5.82107 4.67893 7.5 6.75 7.5C6.89027 7.5 7.02873 7.4923 7.165 7.4773C7.65275 7.4236 7.7858 6.83669 7.5232 6.42218C7.51614 6.41104 7.50912 6.39986 7.50214 6.38865Z" fill="#229849"/>
<path d="M4.45829 14.3169C4.34477 14.1275 4.14439 14 3.92359 14H3.75C2.50736 14 1.5 12.9926 1.5 11.75C1.5 10.5074 2.50736 9.5 3.75 9.5H3.92359C4.14439 9.5 4.34477 9.37252 4.45829 9.18313C4.73539 8.72082 4.43468 8 3.89569 8H3.75C1.67893 8 0 9.67893 0 11.75C0 13.8211 1.67893 15.5 3.75 15.5H3.89569C4.43469 15.5 4.73539 14.7792 4.45829 14.3169Z" fill="#229849"/>
<path d="M15.9768 6.42218C15.7142 6.83669 15.8473 7.4236 16.335 7.4773C16.4713 7.4923 16.6097 7.5 16.75 7.5C18.8211 7.5 20.5 5.82107 20.5 3.75C20.5 1.67893 18.8211 0 16.75 0C16.6097 0 16.4713 0.00770104 16.335 0.0227034C15.8473 0.0764008 15.7142 0.663307 15.9768 1.07782C15.9839 1.08896 15.9909 1.10014 15.9979 1.11134C16.1556 1.36472 16.4515 1.5 16.75 1.5C17.9926 1.5 19 2.50736 19 3.75C19 4.99264 17.9926 6 16.75 6C16.4515 6 16.1556 6.13527 15.9979 6.38865C15.9909 6.39986 15.9839 6.41104 15.9768 6.42218Z" fill="#229849"/>
<path d="M19.0417 14.3169C18.7646 14.7792 19.0653 15.5 19.6043 15.5H19.75C21.8211 15.5 23.5 13.8211 23.5 11.75C23.5 9.67893 21.8211 8 19.75 8H19.6043C19.0653 8 18.7646 8.72082 19.0417 9.18313C19.1552 9.37252 19.3556 9.5 19.5764 9.5H19.75C20.9926 9.5 22 10.5074 22 11.75C22 12.9926 20.9926 14 19.75 14H19.5764C19.3556 14 19.1552 14.1275 19.0417 14.3169Z" fill="#229849"/>
</svg>
