<svg width="20" height="18" viewBox="0 0 21 22" fill="none" xmlns="http://www.w3.org/2000/svg">
<g clip-path="url(#clip0_4179_21664)">
<path d="M4.34264 7.41579C4.34264 10.5748 6.92306 13.1449 10.0948 13.1449C13.2665 13.1449 15.8469 10.5748 15.8469 7.41579C15.8469 5.68106 15.0687 4.12368 13.8413 3.07222L14.15 2.7647C14.315 2.60041 14.315 2.33334 14.15 2.16905C13.9846 2.00476 13.7169 2.00476 13.552 2.16905L13.1531 2.56629C12.6777 2.26804 12.1558 2.03677 11.6005 1.88681V0.842512H11.927C12.1605 0.842512 12.3499 0.65379 12.3499 0.421256C12.3499 0.188723 12.1605 0 11.927 0H8.2507C8.01723 0 7.82775 0.188723 7.82775 0.421256C7.82775 0.65379 8.01723 0.842512 8.2507 0.842512H8.57722V1.88933C8.02611 2.03972 7.50758 2.26931 7.03557 2.56587L6.63672 2.16863C6.47177 2.00434 6.20362 2.00434 6.03867 2.16863C5.87372 2.33292 5.87372 2.59999 6.03867 2.76428L6.34743 3.0718C5.12045 4.12326 4.3418 5.68022 4.3418 7.41537L4.34264 7.41579ZM15.001 7.41579C15.001 10.1101 12.8 12.3024 10.0948 12.3024C7.38957 12.3024 5.18854 10.1101 5.18854 7.41579C5.18854 4.72144 7.38957 2.52922 10.0948 2.52922C12.8 2.52922 15.001 4.72144 15.001 7.41579ZM9.42396 0.842512H10.7554V1.72462C10.5389 1.69977 10.3185 1.68671 10.0952 1.68671C9.87187 1.68671 9.64432 1.70019 9.42396 1.72589V0.842512Z" fill="#229849"/>
<path d="M15.6661 13.9873H11.9919C11.7584 13.9873 11.5689 14.176 11.5689 14.4086C11.5689 14.6411 11.7584 14.8298 11.9919 14.8298H15.6661C15.8923 14.8298 16.0763 15.0131 16.0763 15.2384V20.3192C16.0763 20.5446 15.8923 20.7278 15.6661 20.7278H4.5116C4.28532 20.7278 4.10176 20.5446 4.10176 20.3192V15.2384C4.10176 15.0131 4.28574 14.8298 4.5116 14.8298H8.18577C8.41923 14.8298 8.60872 14.6411 8.60872 14.4086C8.60872 14.176 8.41923 13.9873 8.18577 13.9873H4.5116C3.81923 13.9873 3.25586 14.5484 3.25586 15.2384V20.3192C3.25586 21.0092 3.81923 21.5703 4.5116 21.5703H15.6661C16.3584 21.5703 16.9222 21.0092 16.9222 20.3192V15.2384C16.9222 14.5484 16.3589 13.9873 15.6661 13.9873Z" fill="#229849"/>
<path d="M12.3628 4.55632L10.6452 6.26704C10.4773 6.18616 10.2886 6.14067 10.0898 6.14067C9.38394 6.14067 8.80957 6.71273 8.80957 7.41581C8.80957 8.11889 9.38394 8.69095 10.0898 8.69095C10.7957 8.69095 11.3701 8.11889 11.3701 7.41581C11.3701 7.21782 11.3244 7.02994 11.2432 6.8627L12.9608 5.15198C13.1258 4.98769 13.1258 4.72061 12.9608 4.55632C12.7959 4.39203 12.5281 4.39203 12.3628 4.55632ZM10.0898 7.84844C9.85045 7.84844 9.65547 7.65424 9.65547 7.41581C9.65547 7.17738 9.85045 6.98318 10.0898 6.98318C10.3292 6.98318 10.5242 7.17738 10.5242 7.41581C10.5242 7.65424 10.3292 7.84844 10.0898 7.84844Z" fill="#229849"/>
<path d="M6.5501 19.0423C6.21386 19.0423 5.8903 18.9075 5.68432 18.6813C5.52741 18.509 5.26011 18.496 5.08712 18.6518C4.91413 18.8081 4.90102 19.0744 5.05751 19.2466C5.42083 19.646 5.97912 19.8844 6.5501 19.8844C7.2632 19.8844 7.86209 19.4312 7.97375 18.8069C8.05792 18.3372 7.84391 17.723 6.98997 17.4095C6.57421 17.2571 6.18721 17.0907 6.06879 17.0388C5.97658 16.9651 5.97997 16.8623 5.98589 16.8194C5.99435 16.76 6.03791 16.6146 6.25488 16.5493C6.73113 16.4065 7.17269 16.7532 7.1858 16.7638C7.36471 16.9116 7.62989 16.888 7.77962 16.7107C7.92977 16.5325 7.90693 16.2667 7.72802 16.1171C7.69588 16.0902 6.93499 15.4655 6.01084 15.7426C5.5439 15.8829 5.21316 16.2494 5.14845 16.6997C5.08754 17.1223 5.27152 17.5283 5.62807 17.76C5.64668 17.7722 5.66656 17.7828 5.68686 17.792C5.70632 17.8009 6.17241 18.0073 6.69729 18.2002C6.84575 18.2546 7.1858 18.4088 7.14096 18.659C7.10713 18.8473 6.87704 19.0423 6.5501 19.0423Z" fill="#229849"/>
<path d="M12.5313 19.698L12.744 19.142H14.2015L14.4117 19.6968C14.4756 19.8657 14.6367 19.9693 14.8076 19.9693C14.8571 19.9693 14.9078 19.9605 14.9569 19.942C15.1756 19.8598 15.2855 19.6167 15.2035 19.399L13.9444 16.0761C13.9431 16.0723 13.9414 16.0685 13.9397 16.0647C13.8623 15.8772 13.6809 15.7563 13.4774 15.7563H13.477C13.2736 15.7563 13.0921 15.8781 13.0151 16.0655C13.0139 16.0685 13.0126 16.0719 13.0113 16.0748L11.7408 19.3973C11.6575 19.6146 11.767 19.8581 11.9857 19.9407C12.2039 20.0237 12.4484 19.9146 12.5317 19.6968L12.5313 19.698ZM13.4762 17.2274L13.8822 18.2995H13.0659L13.4757 17.2274H13.4762Z" fill="#229849"/>
<path d="M9.25986 15.7568C9.0264 15.7568 8.83691 15.9456 8.83691 16.1781V19.5452C8.83691 19.7503 8.98537 19.9256 9.18839 19.9606C9.21842 19.9656 10.0626 19.9686 10.4471 19.9664C10.6806 19.9652 10.8692 19.7756 10.8675 19.5427C10.8662 19.311 10.6772 19.1239 10.4445 19.1239H10.442C10.181 19.1256 9.9019 19.1265 9.68239 19.1269V16.1781C9.68239 15.9456 9.49291 15.7568 9.25944 15.7568H9.25986Z" fill="#229849"/>
<path d="M19.4319 7.36848L19.4404 7.37143C19.662 7.44473 19.9014 7.32509 19.975 7.10435C20.0486 6.88361 19.9285 6.64518 19.7068 6.57188L18.4283 6.14894C18.2988 6.10597 18.1563 6.1283 18.0459 6.20792C17.9355 6.28796 17.8708 6.41602 17.8721 6.55208L17.8831 7.89379C17.8848 8.12548 18.0738 8.31167 18.306 8.31167H18.3094C18.5429 8.30999 18.7307 8.11958 18.729 7.88705V7.83944C19.7162 9.44106 19.5152 11.5697 18.1237 12.956C17.9588 13.1203 17.9588 13.3874 18.1237 13.5517C18.2062 13.6338 18.3145 13.6751 18.4228 13.6751C18.531 13.6751 18.6393 13.6338 18.7218 13.5517C20.4039 11.8763 20.6407 9.29825 19.4324 7.3689L19.4319 7.36848Z" fill="#229849"/>
<path d="M1.88407 11.4907H1.88068C1.64721 11.4923 1.45942 11.6828 1.46112 11.9153V11.9629C0.47395 10.3613 0.674852 8.23267 2.06636 6.84631C2.23131 6.68203 2.23131 6.41495 2.06636 6.25066C1.90098 6.08637 1.63326 6.08637 1.46831 6.25066C-0.213766 7.92599 -0.450618 10.5041 0.75775 12.4339L0.749291 12.4309C0.527665 12.3576 0.288275 12.4772 0.214682 12.698C0.141089 12.9187 0.261206 13.1572 0.482832 13.2305L1.76141 13.6534C1.80497 13.6677 1.84981 13.6749 1.89464 13.6749C1.98304 13.6749 2.07016 13.6475 2.14376 13.594C2.25415 13.514 2.31886 13.3859 2.31759 13.2498L2.30702 11.9081C2.30532 11.6769 2.11627 11.4902 1.88407 11.4902V11.4907Z" fill="#229849"/>
<path d="M10.5072 3.86078C10.5447 3.63113 10.3881 3.41475 10.1575 3.37747C9.92694 3.34019 9.70969 3.49614 9.67226 3.72579C9.63483 3.95544 9.79141 4.17182 10.022 4.2091C10.2525 4.24637 10.4698 4.09043 10.5072 3.86078Z" fill="#229849"/>
<path d="M7.5167 5.27562C7.75029 5.27562 7.93965 5.08702 7.93965 4.85436C7.93965 4.62171 7.75029 4.43311 7.5167 4.43311C7.28311 4.43311 7.09375 4.62171 7.09375 4.85436C7.09375 5.08702 7.28311 5.27562 7.5167 5.27562Z" fill="#229849"/>
<path d="M10.5072 11.1069C10.5447 10.8772 10.3881 10.6608 10.1575 10.6236C9.92694 10.5863 9.70969 10.7422 9.67226 10.9719C9.63483 11.2015 9.79141 11.4179 10.022 11.4552C10.2525 11.4925 10.4698 11.3365 10.5072 11.1069Z" fill="#229849"/>
<path d="M7.5167 10.3987C7.75029 10.3987 7.93965 10.2101 7.93965 9.97741C7.93965 9.74476 7.75029 9.55615 7.5167 9.55615C7.28311 9.55615 7.09375 9.74476 7.09375 9.97741C7.09375 10.2101 7.28311 10.3987 7.5167 10.3987Z" fill="#229849"/>
<path d="M6.45127 7.83714C6.68486 7.83714 6.87422 7.64854 6.87422 7.41589C6.87422 7.18323 6.68486 6.99463 6.45127 6.99463C6.21768 6.99463 6.02832 7.18323 6.02832 7.41589C6.02832 7.64854 6.21768 7.83714 6.45127 7.83714Z" fill="#229849"/>
<path d="M12.6612 10.3987C12.8948 10.3987 13.0842 10.2101 13.0842 9.97741C13.0842 9.74476 12.8948 9.55615 12.6612 9.55615C12.4276 9.55615 12.2383 9.74476 12.2383 9.97741C12.2383 10.2101 12.4276 10.3987 12.6612 10.3987Z" fill="#229849"/>
<path d="M10.5072 14.477C10.5447 14.2473 10.3881 14.031 10.1575 13.9937C9.92694 13.9564 9.70969 14.1124 9.67226 14.342C9.63483 14.5716 9.79141 14.788 10.022 14.8253C10.2525 14.8626 10.4698 14.7066 10.5072 14.477Z" fill="#229849"/>
<path d="M13.7267 7.83714C13.9602 7.83714 14.1496 7.64854 14.1496 7.41589C14.1496 7.18323 13.9602 6.99463 13.7267 6.99463C13.4931 6.99463 13.3037 7.18323 13.3037 7.41589C13.3037 7.64854 13.4931 7.83714 13.7267 7.83714Z" fill="#229849"/>
</g>
<defs>
<clipPath id="clip0_4179_21664">
<rect width="20.1895" height="21.57" fill="white"/>
</clipPath>
</defs>
</svg>
