<svg width="16" height="16" viewBox="0 0 20 22" fill="none" xmlns="http://www.w3.org/2000/svg">
<path d="M4.29909 2.01346C4.59379 1.78071 4.64157 1.35617 4.40581 1.06523C4.17005 0.774286 3.74004 0.727116 3.44534 0.959869L1.16757 2.75888C0.872873 2.99163 0.825093 3.41617 1.06085 3.70711C1.29661 3.99805 1.72662 4.04522 2.02132 3.81247L4.29909 2.01346Z" fill="#229849"/>
<path d="M16.1435 0.959869C15.8488 0.727116 15.4188 0.774286 15.1831 1.06523C14.9473 1.35617 14.9951 1.78071 15.2898 2.01346L17.5676 3.81247C17.8622 4.04522 18.2923 3.99805 18.528 3.70711C18.7638 3.41617 18.716 2.99163 18.4213 2.75888L16.1435 0.959869Z" fill="#229849"/>
<path d="M10.4778 7.78319C10.4778 7.4106 10.1718 7.10856 9.79444 7.10856C9.41704 7.10856 9.1111 7.4106 9.1111 7.78319V11.5664C9.1111 11.8531 9.00013 12.129 8.80088 12.3377L7.47502 13.7261C7.21613 13.9971 7.22886 14.4241 7.50345 14.6797C7.77805 14.9353 8.21052 14.9227 8.46941 14.6516L9.79527 13.2633C10.2336 12.8042 10.4778 12.1972 10.4778 11.5664V7.78319Z" fill="#229849"/>
<path fill-rule="evenodd" clip-rule="evenodd" d="M9.79443 1.71154C4.38512 1.71154 0 6.04079 0 11.3812C0 16.7216 4.38512 21.0509 9.79443 21.0509C15.2038 21.0509 19.5889 16.7216 19.5889 11.3812C19.5889 6.04079 15.2038 1.71154 9.79443 1.71154ZM1.36667 11.3812C1.36667 6.78597 5.13991 3.06079 9.79443 3.06079C14.449 3.06079 18.2222 6.78597 18.2222 11.3812C18.2222 15.9764 14.449 19.7016 9.79443 19.7016C5.13991 19.7016 1.36667 15.9764 1.36667 11.3812Z" fill="#229849"/>
</svg>
