<svg width="49" height="50" viewBox="0 0 49 50" fill="none" xmlns="http://www.w3.org/2000/svg">
<rect y="0.5" width="49" height="49" rx="24.5" fill="#1C1C1C" fill-opacity="0.05"/>
<path d="M24.5253 13.2588C20.2499 13.2588 16.7753 16.7334 16.7753 21.0088V24.7417C16.7753 25.5296 16.4394 26.7309 16.039 27.4025L14.5536 29.8696C13.6365 31.3938 14.2694 33.0859 15.9486 33.6542C21.5157 35.5142 27.5219 35.5142 33.089 33.6542C34.6519 33.1375 35.3365 31.2905 34.484 29.8696L32.9986 27.4025C32.6111 26.7309 32.2753 25.5296 32.2753 24.7417V21.0088C32.2753 16.7463 28.7878 13.2588 24.5253 13.2588Z" stroke="#474747" stroke-width="1.5" stroke-miterlimit="10" stroke-linecap="round"/>
<path d="M26.9154 13.6334C26.515 13.5171 26.1016 13.4267 25.6754 13.375C24.4354 13.22 23.2471 13.3104 22.1362 13.6334C22.5108 12.6775 23.4408 12.0059 24.5258 12.0059C25.6108 12.0059 26.5408 12.6775 26.9154 13.6334Z" stroke="#474747" stroke-width="1.5" stroke-miterlimit="10" stroke-linecap="round" stroke-linejoin="round"/>
<path d="M28.4009 34.1191C28.4009 36.2504 26.6571 37.9941 24.5259 37.9941C23.4667 37.9941 22.485 37.555 21.7875 36.8575C21.09 36.16 20.6509 35.1783 20.6509 34.1191" stroke="#474747" stroke-width="1.5" stroke-miterlimit="10"/>
</svg>
