<svg width="50" height="50" viewBox="0 0 50 50" fill="none" xmlns="http://www.w3.org/2000/svg">
<rect x="0.5" y="0.5" width="49" height="49" rx="24.5" fill="#1C1C1C" fill-opacity="0.05"/>
<path d="M32.574 13.7183L36.2828 17.4283C36.5266 17.6721 36.7199 17.9615 36.8519 18.2799C36.9838 18.5984 37.0517 18.9398 37.0517 19.2845C37.0517 19.6292 36.9838 19.9706 36.8519 20.289C36.7199 20.6075 36.5266 20.8969 36.2828 21.1407L33.2682 24.1553C33.889 24.2494 34.4556 24.5629 34.8651 25.0389C35.2746 25.515 35.4998 26.122 35.5 26.75V32.875C35.5 33.5712 35.2234 34.2389 34.7312 34.7311C34.2389 35.2234 33.5712 35.5 32.875 35.5H17.125C16.4288 35.5 15.7611 35.2234 15.2688 34.7311C14.7766 34.2389 14.5 33.5712 14.5 32.875V17.125C14.5 16.4288 14.7766 15.7611 15.2688 15.2688C15.7611 14.7765 16.4288 14.5 17.125 14.5H23.25C23.8785 14.5 24.4861 14.7254 24.9625 15.1354C25.4388 15.5454 25.7523 16.1127 25.8458 16.7342L28.8617 13.7183C29.1054 13.4746 29.3948 13.2812 29.7133 13.1493C30.0318 13.0174 30.3731 12.9495 30.7178 12.9495C31.0626 12.9495 31.4039 13.0174 31.7224 13.1493C32.0409 13.2812 32.3302 13.4746 32.574 13.7183ZM16.25 32.875C16.25 33.3592 16.642 33.75 17.125 33.75H24.1238L24.125 25.875H16.25V32.875ZM25.8738 33.75H32.875C33.1071 33.75 33.3296 33.6578 33.4937 33.4937C33.6578 33.3296 33.75 33.107 33.75 32.875V26.75C33.75 26.5179 33.6578 26.2954 33.4937 26.1313C33.3296 25.9672 33.1071 25.875 32.875 25.875H25.8738V33.75ZM23.25 16.25H17.125C16.8929 16.25 16.6704 16.3422 16.5063 16.5063C16.3422 16.6704 16.25 16.8929 16.25 17.125V24.125H24.125V17.125C24.125 16.8929 24.0328 16.6704 23.8687 16.5063C23.7046 16.3422 23.4821 16.25 23.25 16.25ZM25.875 21.8617V24.125H28.1383L25.875 21.8617ZM30.0983 14.9573L26.3918 18.665C26.3105 18.7462 26.246 18.8427 26.202 18.9489C26.158 19.0551 26.1354 19.1689 26.1354 19.2839C26.1354 19.3989 26.158 19.5127 26.202 19.6189C26.246 19.7251 26.3105 19.8216 26.3918 19.9028L30.1007 23.6117C30.2647 23.7755 30.4871 23.8675 30.719 23.8675C30.9509 23.8675 31.1733 23.7755 31.3373 23.6117L35.0473 19.9028C35.2112 19.7388 35.3032 19.5164 35.3032 19.2845C35.3032 19.0526 35.2112 18.8302 35.0473 18.6662L31.3373 14.9562C31.1733 14.7923 30.9509 14.7003 30.719 14.7003C30.4871 14.7003 30.2647 14.7923 30.1007 14.9562" fill="#474747"/>
</svg>
