<svg width="26" height="20" viewBox="0 0 26 20" fill="none" xmlns="http://www.w3.org/2000/svg">
<path d="M18.5 17.2248C18.3417 17.2248 18.1834 17.1664 18.0584 17.0414L12.625 11.6081C11.7417 10.7248 11.7417 9.27477 12.625 8.39144L18.0584 2.95811C18.3 2.71644 18.7 2.71644 18.9417 2.95811C19.1834 3.19977 19.1834 3.59977 18.9417 3.84144L13.5084 9.27477C13.1084 9.67477 13.1084 10.3248 13.5084 10.7248L18.9417 16.1581C19.1834 16.3998 19.1834 16.7998 18.9417 17.0414C18.8167 17.1581 18.6584 17.2248 18.5 17.2248Z" fill="#474747"/>
<path d="M12.5 17.2248C12.3417 17.2248 12.1834 17.1664 12.0584 17.0414L6.62502 11.6081C5.74169 10.7248 5.74169 9.27477 6.62502 8.39144L12.0584 2.95811C12.3 2.71644 12.7 2.71644 12.9417 2.95811C13.1834 3.19977 13.1834 3.59977 12.9417 3.84144L7.50836 9.27477C7.10836 9.67477 7.10836 10.3248 7.50836 10.7248L12.9417 16.1581C13.1834 16.3998 13.1834 16.7998 12.9417 17.0414C12.8167 17.1581 12.6584 17.2248 12.5 17.2248Z" fill="#474747"/>
</svg>
