<svg width="50" height="48" viewBox="0 0 56 56" fill="none" xmlns="http://www.w3.org/2000/svg">
<circle cx="28" cy="28" r="28" fill="#F9E5E1"/>
<path d="M21.9181 17.3744C22.2552 17.1082 22.3098 16.6225 22.0401 16.2897C21.7704 15.9568 21.2785 15.9029 20.9414 16.1691L18.3357 18.2272C17.9985 18.4934 17.9439 18.9791 18.2136 19.3119C18.4833 19.6447 18.9752 19.6987 19.3123 19.4324L21.9181 17.3744Z" fill="#D95C41"/>
<path d="M35.4678 16.1691C35.1307 15.9029 34.6387 15.9568 34.369 16.2897C34.0993 16.6225 34.154 17.1082 34.4911 17.3744L37.0968 19.4324C37.434 19.6987 37.9259 19.6447 38.1956 19.3119C38.4653 18.9791 38.4106 18.4934 38.0735 18.2272L35.4678 16.1691Z" fill="#D95C41"/>
<path d="M28.9863 23.9749C28.9863 23.5486 28.6363 23.2031 28.2046 23.2031C27.7729 23.2031 27.4229 23.5486 27.4229 23.9749V28.3027C27.4229 28.6308 27.2959 28.9464 27.068 29.1851L25.5512 30.7733C25.2551 31.0835 25.2696 31.5719 25.5838 31.8643C25.8979 32.1567 26.3926 32.1423 26.6888 31.8322L28.2056 30.2439C28.707 29.7188 28.9863 29.0244 28.9863 28.3027V23.9749Z" fill="#D95C41"/>
<path fill-rule="evenodd" clip-rule="evenodd" d="M28.2046 17.029C22.0165 17.029 17 21.9816 17 28.0909C17 34.2002 22.0165 39.1528 28.2046 39.1528C34.3927 39.1528 39.4092 34.2002 39.4092 28.0909C39.4092 21.9816 34.3927 17.029 28.2046 17.029ZM18.5634 28.0909C18.5634 22.8341 22.8799 18.5726 28.2046 18.5726C33.5293 18.5726 37.8457 22.8341 37.8457 28.0909C37.8457 33.3477 33.5293 37.6092 28.2046 37.6092C22.8799 37.6092 18.5634 33.3477 18.5634 28.0909Z" fill="#D95C41"/>
<path d="M21.9181 17.3744C22.2552 17.1082 22.3098 16.6225 22.0401 16.2897C21.7704 15.9568 21.2785 15.9029 20.9414 16.1691L18.3357 18.2272C17.9985 18.4934 17.9439 18.9791 18.2136 19.3119C18.4833 19.6447 18.9752 19.6987 19.3123 19.4324L21.9181 17.3744Z" stroke="#D95C41" stroke-width="0.8"/>
<path d="M35.4678 16.1691C35.1307 15.9029 34.6387 15.9568 34.369 16.2897C34.0993 16.6225 34.154 17.1082 34.4911 17.3744L37.0968 19.4324C37.434 19.6987 37.9259 19.6447 38.1956 19.3119C38.4653 18.9791 38.4106 18.4934 38.0735 18.2272L35.4678 16.1691Z" stroke="#D95C41" stroke-width="0.8"/>
<path d="M28.9863 23.9749C28.9863 23.5486 28.6363 23.2031 28.2046 23.2031C27.7729 23.2031 27.4229 23.5486 27.4229 23.9749V28.3027C27.4229 28.6308 27.2959 28.9464 27.068 29.1851L25.5512 30.7733C25.2551 31.0835 25.2696 31.5719 25.5838 31.8643C25.8979 32.1567 26.3926 32.1423 26.6888 31.8322L28.2056 30.2439C28.707 29.7188 28.9863 29.0244 28.9863 28.3027V23.9749Z" stroke="#D95C41" stroke-width="0.8"/>
<path fill-rule="evenodd" clip-rule="evenodd" d="M28.2046 17.029C22.0165 17.029 17 21.9816 17 28.0909C17 34.2002 22.0165 39.1528 28.2046 39.1528C34.3927 39.1528 39.4092 34.2002 39.4092 28.0909C39.4092 21.9816 34.3927 17.029 28.2046 17.029ZM18.5634 28.0909C18.5634 22.8341 22.8799 18.5726 28.2046 18.5726C33.5293 18.5726 37.8457 22.8341 37.8457 28.0909C37.8457 33.3477 33.5293 37.6092 28.2046 37.6092C22.8799 37.6092 18.5634 33.3477 18.5634 28.0909Z" stroke="#D95C41" stroke-width="0.8"/>
</svg>