<svg width="23" height="24" viewBox="0 0 20 20" fill="none" xmlns="http://www.w3.org/2000/svg">
<path d="M0 4.28571C0 3.14907 0.451529 2.05898 1.25526 1.25526C2.05898 0.451529 3.14907 0 4.28571 0H15.7143C16.8509 0 17.941 0.451529 18.7447 1.25526C19.5485 2.05898 20 3.14907 20 4.28571V15.7143C20 16.8509 19.5485 17.941 18.7447 18.7447C17.941 19.5485 16.8509 20 15.7143 20H4.28571C3.14907 20 2.05898 19.5485 1.25526 18.7447C0.451529 17.941 0 16.8509 0 15.7143V4.28571ZM9.07714 5.86286C9.21127 5.72873 9.28662 5.54682 9.28662 5.35714C9.28662 5.16746 9.21127 4.98555 9.07714 4.85143C8.94302 4.7173 8.76111 4.64195 8.57143 4.64195C8.38175 4.64195 8.19984 4.7173 8.06571 4.85143L6.04857 6.86857L5.48143 6.35143C5.34051 6.23098 5.15829 6.17004 4.97327 6.18148C4.78825 6.19291 4.61492 6.27583 4.48991 6.41271C4.36489 6.54959 4.298 6.72971 4.30335 6.91501C4.30869 7.10031 4.38587 7.27627 4.51857 7.40571L5.59 8.38429C5.72576 8.50789 5.90389 8.57447 6.08743 8.57021C6.27098 8.56595 6.44583 8.49119 6.57571 8.36143L9.07714 5.86286ZM9.07714 11.9943C9.01079 11.9278 8.93197 11.875 8.84519 11.839C8.75841 11.803 8.66538 11.7844 8.57143 11.7844C8.47748 11.7844 8.38445 11.803 8.29767 11.839C8.21089 11.875 8.13207 11.9278 8.06571 11.9943L6.04857 14.0114L5.48143 13.4943C5.34051 13.3738 5.15829 13.3129 4.97327 13.3243C4.78825 13.3358 4.61492 13.4187 4.48991 13.5556C4.36489 13.6925 4.298 13.8726 4.30335 14.0579C4.30869 14.2432 4.38587 14.4191 4.51857 14.5486L5.59 15.5271C5.72557 15.6509 5.90361 15.7178 6.08715 15.7138C6.27069 15.7098 6.44565 15.6353 6.57571 15.5057L9.07571 13.0057C9.20962 12.8718 9.28485 12.6901 9.28485 12.5007C9.28485 12.3113 9.20962 12.1297 9.07571 11.9957M11.4286 12.8571C11.2391 12.8571 11.0574 12.9324 10.9235 13.0664C10.7895 13.2003 10.7143 13.382 10.7143 13.5714C10.7143 13.7609 10.7895 13.9426 10.9235 14.0765C11.0574 14.2105 11.2391 14.2857 11.4286 14.2857H15C15.1894 14.2857 15.3711 14.2105 15.5051 14.0765C15.639 13.9426 15.7143 13.7609 15.7143 13.5714C15.7143 13.382 15.639 13.2003 15.5051 13.0664C15.3711 12.9324 15.1894 12.8571 15 12.8571H11.4286ZM10.7143 6.42857C10.7143 6.61801 10.7895 6.79969 10.9235 6.93365C11.0574 7.0676 11.2391 7.14286 11.4286 7.14286H15C15.1894 7.14286 15.3711 7.0676 15.5051 6.93365C15.639 6.79969 15.7143 6.61801 15.7143 6.42857C15.7143 6.23913 15.639 6.05745 15.5051 5.9235C15.3711 5.78954 15.1894 5.71429 15 5.71429H11.4286C11.2391 5.71429 11.0574 5.78954 10.9235 5.9235C10.7895 6.05745 10.7143 6.23913 10.7143 6.42857Z" fill="#229849"/>
</svg>
