<svg width="16" height="11" viewBox="0 0 16 16" fill="none" xmlns="http://www.w3.org/2000/svg">
<path d="M5.3335 1.3335V3.3335" stroke="#787486" stroke-width="1.3" stroke-miterlimit="10" stroke-linecap="round" stroke-linejoin="round"/>
<path d="M10.6665 1.3335V3.3335" stroke="#787486" stroke-width="1.3" stroke-miterlimit="10" stroke-linecap="round" stroke-linejoin="round"/>
<path d="M10.6667 2.3335C12.8867 2.4535 14 3.30016 14 6.4335V10.5535C14 13.3002 13.3333 14.6735 10 14.6735H6C2.66667 14.6735 2 13.3002 2 10.5535V6.4335C2 3.30016 3.11333 2.46016 5.33333 2.3335H10.6667Z" stroke="#787486" stroke-width="1.3" stroke-miterlimit="10" stroke-linecap="round" stroke-linejoin="round"/>
<path d="M13.8332 11.7334H2.1665" stroke="#787486" stroke-width="1.3" stroke-miterlimit="10" stroke-linecap="round" stroke-linejoin="round"/>
<path d="M8.00016 5.5C7.18016 5.5 6.48683 5.94667 6.48683 6.81333C6.48683 7.22667 6.68016 7.54 6.9735 7.74C6.56683 7.98 6.3335 8.36667 6.3335 8.82C6.3335 9.64667 6.96683 10.16 8.00016 10.16C9.02683 10.16 9.66683 9.64667 9.66683 8.82C9.66683 8.36667 9.4335 7.97333 9.02016 7.74C9.32016 7.53333 9.50683 7.22667 9.50683 6.81333C9.50683 5.94667 8.82016 5.5 8.00016 5.5ZM8.00016 7.39333C7.6535 7.39333 7.40016 7.18667 7.40016 6.86C7.40016 6.52667 7.6535 6.33333 8.00016 6.33333C8.34683 6.33333 8.60016 6.52667 8.60016 6.86C8.60016 7.18667 8.34683 7.39333 8.00016 7.39333ZM8.00016 9.33333C7.56016 9.33333 7.24016 9.11333 7.24016 8.71333C7.24016 8.31333 7.56016 8.1 8.00016 8.1C8.44016 8.1 8.76016 8.32 8.76016 8.71333C8.76016 9.11333 8.44016 9.33333 8.00016 9.33333Z" fill="#787486"/>
</svg>
