<svg width="56" height="56" viewBox="0 0 56 56" fill="none" xmlns="http://www.w3.org/2000/svg">
<circle cx="28" cy="28" r="28" fill="#E9F5FA"/>
<path d="M23.3333 28.2333H31.4999" stroke="#1EB2F1" stroke-width="2" stroke-miterlimit="10" stroke-linecap="round" stroke-linejoin="round"/>
<path d="M23.3333 32.9H28.4433" stroke="#1EB2F1" stroke-width="2" stroke-miterlimit="10" stroke-linecap="round" stroke-linejoin="round"/>
<path d="M25.6666 21H30.3333C32.6666 21 32.6666 19.8333 32.6666 18.6667C32.6666 16.3333 31.4999 16.3333 30.3333 16.3333H25.6666C24.4999 16.3333 23.3333 16.3333 23.3333 18.6667C23.3333 21 24.4999 21 25.6666 21Z" stroke="#1EB2F1" stroke-width="2" stroke-miterlimit="10" stroke-linecap="round" stroke-linejoin="round"/>
<path d="M32.6667 18.69C36.5517 18.9 38.5 20.335 38.5 25.6667V32.6667C38.5 37.3333 37.3333 39.6667 31.5 39.6667H24.5C18.6667 39.6667 17.5 37.3333 17.5 32.6667V25.6667C17.5 20.3467 19.4483 18.9 23.3333 18.69" stroke="#1EB2F1" stroke-width="2" stroke-miterlimit="10" stroke-linecap="round" stroke-linejoin="round"/>
</svg>
