<svg width="56" height="56" viewBox="0 0 56 56" fill="none" xmlns="http://www.w3.org/2000/svg">
<circle cx="28" cy="28" r="28" fill="#FFF4E0"/>
<path d="M35 36.0033H34.1133C33.18 36.0033 32.2933 36.3649 31.64 37.0183L29.645 38.9899C28.735 39.8883 27.2534 39.8883 26.3434 38.9899L24.3483 37.0183C23.695 36.3649 22.7967 36.0033 21.875 36.0033H21C19.0633 36.0033 17.5 34.4516 17.5 32.5383V19.8099C17.5 17.8966 19.0633 16.345 21 16.345H35C36.9367 16.345 38.5 17.8966 38.5 19.8099V32.5383C38.5 34.44 36.9367 36.0033 35 36.0033Z" stroke="#F2994A" stroke-width="2" stroke-miterlimit="10" stroke-linecap="round" stroke-linejoin="round"/>
<path d="M27.9996 25.6667C29.5009 25.6667 30.718 24.4496 30.718 22.9483C30.718 21.447 29.5009 20.23 27.9996 20.23C26.4983 20.23 25.2812 21.447 25.2812 22.9483C25.2812 24.4496 26.4983 25.6667 27.9996 25.6667Z" stroke="#F2994A" stroke-width="2" stroke-linecap="round" stroke-linejoin="round"/>
<path d="M32.6663 32.2699C32.6663 30.1699 30.578 28.4667 27.9997 28.4667C25.4213 28.4667 23.333 30.1699 23.333 32.2699" stroke="#F2994A" stroke-width="2" stroke-linecap="round" stroke-linejoin="round"/>
</svg>
