<svg width="50" height="48" viewBox="0 0 56 56" fill="none" xmlns="http://www.w3.org/2000/svg">
<circle cx="28" cy="28" r="28" fill="#E9F5FA"/>
<path d="M31.6667 19V21.5714M31.6667 26.7143V29.2857M31.6667 34.4286V37M19.4444 19H36.5556C37.2039 19 37.8256 19.2709 38.284 19.7532C38.7425 20.2354 39 20.8894 39 21.5714V25.4286C38.3517 25.4286 37.7299 25.6995 37.2715 26.1817C36.8131 26.664 36.5556 27.318 36.5556 28C36.5556 28.682 36.8131 29.336 37.2715 29.8183C37.7299 30.3005 38.3517 30.5714 39 30.5714V34.4286C39 35.1106 38.7425 35.7646 38.284 36.2468C37.8256 36.7291 37.2039 37 36.5556 37H19.4444C18.7961 37 18.1744 36.7291 17.716 36.2468C17.2575 35.7646 17 35.1106 17 34.4286V30.5714C17.6483 30.5714 18.2701 30.3005 18.7285 29.8183C19.1869 29.336 19.4444 28.682 19.4444 28C19.4444 27.318 19.1869 26.664 18.7285 26.1817C18.2701 25.6995 17.6483 25.4286 17 25.4286V21.5714C17 20.8894 17.2575 20.2354 17.716 19.7532C18.1744 19.2709 18.7961 19 19.4444 19Z" stroke="#1EB2F1" stroke-width="2" stroke-linecap="round" stroke-linejoin="round"/>
<path d="M43 35C43 36.3116 42.6463 37.5495 41.9979 38.6105C40.7895 40.6295 38.5642 42 36 42C34.6147 42 33.3179 41.5874 32.2274 40.8653C31.3137 40.3053 30.5621 39.5242 30.0168 38.6105C29.3684 37.5495 29 36.3116 29 35C29 31.1389 32.1389 28 36 28C36.5305 28 37.0463 28.0589 37.5326 28.1768C40.6715 28.8695 43 31.6695 43 35Z" fill="#1EB2F1" stroke="#E9F5FA" stroke-width="2" stroke-miterlimit="10" stroke-linecap="round" stroke-linejoin="round"/>
<path d="M34.0363 31.9155C34.1416 31.835 34.1586 31.6882 34.0744 31.5876C33.9902 31.487 33.8365 31.4706 33.7312 31.5511L32.9172 32.1734C32.8119 32.2539 32.7948 32.4007 32.8791 32.5013C32.9633 32.602 33.117 32.6183 33.2223 32.5378L34.0363 31.9155Z" fill="white"/>
<path d="M38.2688 31.5511C38.1635 31.4706 38.0098 31.487 37.9256 31.5876C37.8414 31.6882 37.8584 31.835 37.9637 31.9155L38.7777 32.5378C38.883 32.6183 39.0367 32.602 39.1209 32.5013C39.2052 32.4007 39.1881 32.2539 39.0828 32.1734L38.2688 31.5511Z" fill="white"/>
<path d="M36.2442 33.9111C36.2442 33.7823 36.1349 33.6778 36 33.6778C35.8651 33.6778 35.7558 33.7823 35.7558 33.9111V35.2196C35.7558 35.3188 35.7162 35.4142 35.645 35.4864L35.1712 35.9666C35.0787 36.0603 35.0832 36.208 35.1813 36.2964C35.2795 36.3848 35.434 36.3805 35.5265 36.2867L36.0003 35.8065C36.1569 35.6477 36.2442 35.4378 36.2442 35.2196V33.9111Z" fill="white"/>
<path fill-rule="evenodd" clip-rule="evenodd" d="M36 31.8111C34.067 31.8111 32.5 33.3085 32.5 35.1556C32.5 37.0026 34.067 38.5 36 38.5C37.933 38.5 39.5 37.0026 39.5 35.1556C39.5 33.3085 37.933 31.8111 36 31.8111ZM32.9884 35.1556C32.9884 33.5662 34.3367 32.2778 36 32.2778C37.6633 32.2778 39.0116 33.5662 39.0116 35.1556C39.0116 36.7449 37.6633 38.0333 36 38.0333C34.3367 38.0333 32.9884 36.7449 32.9884 35.1556Z" fill="white"/>
<path d="M34.0363 31.9155C34.1416 31.835 34.1586 31.6882 34.0744 31.5876C33.9902 31.487 33.8365 31.4706 33.7312 31.5511L32.9172 32.1734C32.8119 32.2539 32.7948 32.4007 32.8791 32.5013C32.9633 32.602 33.117 32.6183 33.2223 32.5378L34.0363 31.9155Z" stroke="white" stroke-width="0.4"/>
<path d="M38.2688 31.5511C38.1635 31.4706 38.0098 31.487 37.9256 31.5876C37.8414 31.6882 37.8584 31.835 37.9637 31.9155L38.7777 32.5378C38.883 32.6183 39.0367 32.602 39.1209 32.5013C39.2052 32.4007 39.1881 32.2539 39.0828 32.1734L38.2688 31.5511Z" stroke="white" stroke-width="0.4"/>
<path d="M36.2442 33.9111C36.2442 33.7823 36.1349 33.6778 36 33.6778C35.8651 33.6778 35.7558 33.7823 35.7558 33.9111V35.2196C35.7558 35.3188 35.7162 35.4142 35.645 35.4864L35.1712 35.9666C35.0787 36.0603 35.0832 36.208 35.1813 36.2964C35.2795 36.3848 35.434 36.3805 35.5265 36.2867L36.0003 35.8065C36.1569 35.6477 36.2442 35.4378 36.2442 35.2196V33.9111Z" stroke="white" stroke-width="0.4"/>
<path fill-rule="evenodd" clip-rule="evenodd" d="M36 31.8111C34.067 31.8111 32.5 33.3085 32.5 35.1556C32.5 37.0026 34.067 38.5 36 38.5C37.933 38.5 39.5 37.0026 39.5 35.1556C39.5 33.3085 37.933 31.8111 36 31.8111ZM32.9884 35.1556C32.9884 33.5662 34.3367 32.2778 36 32.2778C37.6633 32.2778 39.0116 33.5662 39.0116 35.1556C39.0116 36.7449 37.6633 38.0333 36 38.0333C34.3367 38.0333 32.9884 36.7449 32.9884 35.1556Z" stroke="white" stroke-width="0.4"/>
</svg>
