<svg width="56" height="56" viewBox="0 0 56 56" fill="none" xmlns="http://www.w3.org/2000/svg">
<circle cx="28" cy="28" r="28" fill="#F1FBE3"/>
<path d="M24.6862 27.5567C24.6512 27.5567 24.6279 27.5567 24.5929 27.5567C24.5346 27.545 24.4529 27.545 24.3829 27.5567C20.9996 27.4517 18.4446 24.7917 18.4446 21.5133C18.4446 18.1767 21.1629 15.4583 24.4996 15.4583C27.8362 15.4583 30.5546 18.1767 30.5546 21.5133C30.5429 24.7917 27.9762 27.4517 24.7212 27.5567C24.7096 27.5567 24.6979 27.5567 24.6862 27.5567ZM24.4996 17.2083C22.1312 17.2083 20.1946 19.145 20.1946 21.5133C20.1946 23.8467 22.0146 25.725 24.3362 25.8067C24.4062 25.795 24.5579 25.795 24.7096 25.8067C26.9962 25.7017 28.7929 23.8233 28.8046 21.5133C28.8046 19.145 26.8679 17.2083 24.4996 17.2083Z" fill="#7DC843"/>
<path d="M33.2963 27.7083C33.2613 27.7083 33.2263 27.7083 33.1913 27.6967C32.7129 27.7433 32.2229 27.405 32.1763 26.9267C32.1296 26.4483 32.4213 26.0167 32.8996 25.9583C33.0396 25.9467 33.1913 25.9467 33.3196 25.9467C35.0229 25.8533 36.3529 24.4533 36.3529 22.7383C36.3529 20.965 34.9179 19.53 33.1446 19.53C32.6663 19.5417 32.2696 19.145 32.2696 18.6667C32.2696 18.1883 32.6663 17.7917 33.1446 17.7917C35.8746 17.7917 38.1029 20.02 38.1029 22.75C38.1029 25.4333 36.0029 27.6033 33.3313 27.7083C33.3196 27.7083 33.3079 27.7083 33.2963 27.7083Z" fill="#7DC843"/>
<path d="M24.6979 40.3083C22.4112 40.3083 20.1129 39.725 18.3745 38.5583C16.7529 37.485 15.8662 36.015 15.8662 34.4167C15.8662 32.8183 16.7529 31.3367 18.3745 30.2517C21.8745 27.93 27.5445 27.93 31.0212 30.2517C32.6312 31.325 33.5295 32.795 33.5295 34.3933C33.5295 35.9917 32.6429 37.4733 31.0212 38.5583C29.2712 39.725 26.9845 40.3083 24.6979 40.3083ZM19.3429 31.7217C18.2229 32.4683 17.6162 33.425 17.6162 34.4283C17.6162 35.42 18.2345 36.3767 19.3429 37.1117C22.2479 39.06 27.1479 39.06 30.0529 37.1117C31.1729 36.365 31.7795 35.4083 31.7795 34.405C31.7795 33.4133 31.1612 32.4567 30.0529 31.7217C27.1479 29.785 22.2479 29.785 19.3429 31.7217Z" fill="#7DC843"/>
<path d="M35.3962 38.2083C34.9879 38.2083 34.6262 37.9283 34.5446 37.5083C34.4512 37.03 34.7546 36.575 35.2212 36.47C35.9562 36.3183 36.6329 36.0267 37.1579 35.6183C37.8229 35.1167 38.1846 34.4867 38.1846 33.8217C38.1846 33.1567 37.8229 32.5267 37.1696 32.0367C36.6562 31.64 36.0146 31.36 35.2562 31.185C34.7896 31.08 34.4862 30.6133 34.5912 30.135C34.6962 29.6683 35.1629 29.365 35.6412 29.47C36.6446 29.6917 37.5196 30.0883 38.2312 30.6367C39.3162 31.4533 39.9346 32.6083 39.9346 33.8217C39.9346 35.035 39.3046 36.19 38.2196 37.0183C37.4962 37.5783 36.5862 37.9867 35.5829 38.185C35.5129 38.2083 35.4546 38.2083 35.3962 38.2083Z" fill="#7DC843"/>
</svg>
