<svg width="50" height="48" viewBox="0 0 56 56" fill="none" xmlns="http://www.w3.org/2000/svg">
<circle cx="28" cy="28" r="28" fill="#F6ECFF"/>
<path d="M31 20V22.4286M31 27.2857V29.7143M31 34.5714V37M19.3333 20H35.6667C36.2855 20 36.879 20.2559 37.3166 20.7113C37.7542 21.1668 38 21.7845 38 22.4286V26.0714C37.3812 26.0714 36.7877 26.3273 36.3501 26.7827C35.9125 27.2382 35.6667 27.8559 35.6667 28.5C35.6667 29.1441 35.9125 29.7618 36.3501 30.2173C36.7877 30.6727 37.3812 30.9286 38 30.9286V34.5714C38 35.2155 37.7542 35.8332 37.3166 36.2887C36.879 36.7441 36.2855 37 35.6667 37H19.3333C18.7145 37 18.121 36.7441 17.6834 36.2887C17.2458 35.8332 17 35.2155 17 34.5714V30.9286C17.6188 30.9286 18.2123 30.6727 18.6499 30.2173C19.0875 29.7618 19.3333 29.1441 19.3333 28.5C19.3333 27.8559 19.0875 27.2382 18.6499 26.7827C18.2123 26.3273 17.6188 26.0714 17 26.0714V22.4286C17 21.7845 17.2458 21.1668 17.6834 20.7113C18.121 20.2559 18.7145 20 19.3333 20Z" stroke="#5030E5" stroke-width="2.57143" stroke-linecap="round" stroke-linejoin="round"/>
</svg>
