<svg width="56" height="56" viewBox="0 0 56 56" fill="none" xmlns="http://www.w3.org/2000/svg">
<circle cx="28" cy="28" r="28" fill="#FFEEE5"/>
<path d="M31.6667 19V21.5714M31.6667 26.7143V29.2857M31.6667 34.4286V37M19.4444 19H36.5556C37.2039 19 37.8256 19.2709 38.284 19.7532C38.7425 20.2354 39 20.8894 39 21.5714V25.4286C38.3517 25.4286 37.7299 25.6995 37.2715 26.1817C36.8131 26.664 36.5556 27.318 36.5556 28C36.5556 28.682 36.8131 29.336 37.2715 29.8183C37.7299 30.3005 38.3517 30.5714 39 30.5714V34.4286C39 35.1106 38.7425 35.7646 38.284 36.2468C37.8256 36.7291 37.2039 37 36.5556 37H19.4444C18.7961 37 18.1744 36.7291 17.716 36.2468C17.2575 35.7646 17 35.1106 17 34.4286V30.5714C17.6483 30.5714 18.2701 30.3005 18.7285 29.8183C19.1869 29.336 19.4444 28.682 19.4444 28C19.4444 27.318 19.1869 26.664 18.7285 26.1817C18.2701 25.6995 17.6483 25.4286 17 25.4286V21.5714C17 20.8894 17.2575 20.2354 17.716 19.7532C18.1744 19.2709 18.7961 19 19.4444 19Z" stroke="#D86D30" stroke-width="2" stroke-linecap="round" stroke-linejoin="round"/>
<path d="M43 35C43 36.3116 42.6463 37.5495 41.9979 38.6105C40.7895 40.6295 38.5642 42 36 42C34.6147 42 33.3179 41.5874 32.2274 40.8653C31.3137 40.3053 30.5621 39.5242 30.0168 38.6105C29.3684 37.5495 29 36.3116 29 35C29 31.1389 32.1389 28 36 28C36.5305 28 37.0463 28.0589 37.5326 28.1768C40.6715 28.8695 43 31.6695 43 35Z" fill="#D86D30" stroke="#FBF1F2" stroke-width="2" stroke-miterlimit="10" stroke-linecap="round" stroke-linejoin="round"/>
<path d="M38 37L34 33" stroke="white" stroke-miterlimit="10" stroke-linecap="round" stroke-linejoin="round"/>
<path d="M38 33L34 37" stroke="white" stroke-miterlimit="10" stroke-linecap="round" stroke-linejoin="round"/>
</svg>
