<svg width="23" height="24" viewBox="0 0 25 24" fill="none" xmlns="http://www.w3.org/2000/svg">
<path d="M9.44849 10.87C9.34534 10.86 9.22156 10.86 9.1081 10.87C6.65314 10.79 4.70361 8.84 4.70361 6.44C4.70361 3.99 6.74597 2 9.28345 2C11.8106 2 13.8633 3.99 13.8633 6.44C13.853 8.84 11.9035 10.79 9.44849 10.87Z" stroke="black" stroke-width="1.5" stroke-linecap="round" stroke-linejoin="round"/>
<path d="M16.9271 4C18.9282 4 20.5373 5.57 20.5373 7.5C20.5373 9.39 18.9901 10.93 17.0612 11C16.9786 10.99 16.8858 10.99 16.793 11" stroke="black" stroke-width="1.5" stroke-linecap="round" stroke-linejoin="round"/>
<path d="M4.29111 14.56C1.79489 16.18 1.79489 18.82 4.29111 20.43C7.12772 22.27 11.7798 22.27 14.6164 20.43C17.1126 18.81 17.1126 16.17 14.6164 14.56C11.7901 12.73 7.13804 12.73 4.29111 14.56Z" stroke="black" stroke-width="1.5" stroke-linecap="round" stroke-linejoin="round"/>
<path d="M18.9175 20C19.6602 19.85 20.3616 19.56 20.9392 19.13C22.5483 17.96 22.5483 16.03 20.9392 14.86C20.3719 14.44 19.6808 14.16 18.9484 14" stroke="black" stroke-width="1.5" stroke-linecap="round" stroke-linejoin="round"/>
</svg>
